<svg width="141" height="31" viewBox="0 0 141 31" fill="none" xmlns="http://www.w3.org/2000/svg">
<path d="M22.9122 14.0286C22.5332 14.4099 22.243 14.8701 22.0622 15.3763C21.8814 15.8826 21.8145 16.4225 21.8662 16.9576L21.8482 16.9396C21.9014 17.5695 21.8164 18.2033 21.5993 18.797C21.3822 19.3906 21.0382 19.9297 20.5913 20.3767C20.1443 20.8236 19.6052 21.1677 19.0115 21.3847C18.4179 21.6018 17.784 21.6868 17.1542 21.6336L17.1722 21.6516C16.4188 21.5815 15.6621 21.7454 15.0052 22.1211C14.3484 22.4968 13.8234 23.0659 13.5019 23.7509C13.1804 24.4359 13.0779 25.2033 13.2085 25.9487C13.3392 26.694 13.6965 27.3809 14.2318 27.9157C14.7671 28.4505 15.4543 28.8072 16.1997 28.9371C16.9452 29.0671 17.7125 28.9639 18.3972 28.6418C19.0819 28.3196 19.6505 27.7942 20.0256 27.137C20.4007 26.4798 20.564 25.723 20.4932 24.9696L20.5122 24.9876C20.459 24.3578 20.5439 23.7239 20.761 23.1302C20.9781 22.5366 21.3222 21.9975 21.7691 21.5505C22.2161 21.1036 22.7552 20.7595 23.3488 20.5425C23.9425 20.3254 24.5763 20.2404 25.2062 20.2936L25.1872 20.2756C25.8026 20.3309 26.4221 20.23 26.9882 19.9822C27.5542 19.7344 28.0486 19.3477 28.4254 18.858C28.8022 18.3683 29.0494 17.7913 29.1438 17.1807C29.2383 16.57 29.1771 15.9454 28.9659 15.3646C28.7547 14.7839 28.4003 14.2659 27.9356 13.8586C27.4709 13.4513 26.9109 13.1679 26.3075 13.0347C25.7041 12.9015 25.0768 12.9227 24.4838 13.0964C23.8908 13.2702 23.3513 13.5908 22.9152 14.0286H22.9122Z" fill="#813794"/>
<path d="M15.5353 19.2936L15.5163 19.2756C16.0516 19.3295 16.5922 19.2638 17.0991 19.0832C17.6059 18.9026 18.0663 18.6117 18.4469 18.2314C18.8274 17.8511 19.1188 17.3909 19.2997 16.8842C19.4807 16.3775 19.5468 15.837 19.4933 15.3016L19.5123 15.3196C19.4591 14.6897 19.5441 14.0559 19.7611 13.4622C19.9782 12.8686 20.3223 12.3295 20.7692 11.8825C21.2162 11.4356 21.7553 11.0915 22.3489 10.8745C22.9426 10.6574 23.5764 10.5724 24.2063 10.6256L24.1873 10.6076C24.9408 10.6784 25.6977 10.515 26.3549 10.1397C27.0122 9.76443 27.5376 9.19556 27.8596 8.51069C28.1816 7.82583 28.2845 7.0583 28.1543 6.31279C28.0241 5.56728 27.6671 4.8801 27.1319 4.34496C26.5968 3.80983 25.9096 3.45279 25.1641 3.32257C24.4186 3.19234 23.6511 3.29525 22.9662 3.61727C22.2813 3.93928 21.7125 4.46473 21.3372 5.12194C20.9619 5.77914 20.7985 6.53611 20.8693 7.28959L20.8513 7.27059C20.9046 7.90048 20.8198 8.53442 20.6028 9.12814C20.3858 9.72186 20.0417 10.2611 19.5948 10.7081C19.1478 11.155 18.6086 11.4991 18.0149 11.7161C17.4211 11.9331 16.7872 12.0179 16.1573 11.9646L16.1753 11.9836C15.64 11.9297 15.0993 11.9954 14.5925 12.176C14.0857 12.3565 13.6253 12.6475 13.2447 13.0278C12.8641 13.4081 12.5728 13.8683 12.3918 14.375C12.2109 14.8817 12.1448 15.4222 12.1983 15.9576L12.1803 15.9396C12.2333 16.5694 12.1482 17.2032 11.9311 17.7968C11.7139 18.3903 11.3699 18.9294 10.923 19.3763C10.4761 19.8232 9.93704 20.1672 9.34348 20.3844C8.74992 20.6015 8.11613 20.6866 7.48632 20.6336L7.50432 20.6516C6.75084 20.5808 5.99387 20.7442 5.33666 21.1195C4.67946 21.4948 4.15401 22.0636 3.832 22.7485C3.50998 23.4334 3.40706 24.2009 3.53729 24.9464C3.66752 25.6919 4.02456 26.3791 4.55969 26.9142C5.09483 27.4494 5.78201 27.8064 6.52752 27.9366C7.27303 28.0668 8.04056 27.9639 8.72543 27.6419C9.41029 27.3199 9.97916 26.7945 10.3544 26.1373C10.7297 25.48 10.8931 24.7231 10.8223 23.9696L10.8413 23.9876C10.7881 23.3577 10.8731 22.7239 11.0902 22.1302C11.3072 21.5366 11.6513 20.9975 12.0982 20.5505C12.5452 20.1036 13.0843 19.7595 13.6779 19.5425C14.2716 19.3254 14.9054 19.2404 15.5353 19.2936Z" fill="#813794"/>
<path d="M8.83338 17.2867C9.2124 16.9055 9.50258 16.4453 9.68322 15.939C9.86386 15.4327 9.9305 14.8927 9.87838 14.3577L9.89737 14.3757C9.84417 13.7457 9.92913 13.1116 10.1464 12.5178C10.3636 11.924 10.7078 11.3848 11.155 10.9378C11.6022 10.4908 12.1415 10.1468 12.7354 9.92983C13.3293 9.71287 13.9634 9.62817 14.5934 9.68165L14.5744 9.66365C15.3276 9.73422 16.0843 9.57073 16.7412 9.19549C17.3981 8.82026 17.9232 8.25153 18.2451 7.56688C18.5669 6.88222 18.6697 6.11497 18.5395 5.36974C18.4093 4.62451 18.0523 3.93759 17.5174 3.40265C16.9825 2.86771 16.2955 2.51079 15.5503 2.38057C14.8051 2.25034 14.0378 2.35316 13.3532 2.67498C12.6685 2.9968 12.0998 3.52197 11.7246 4.17887C11.3493 4.83577 11.1858 5.59243 11.2564 6.34565L11.2384 6.32765C11.2916 6.9575 11.2066 7.59137 10.9895 8.18501C10.7724 8.77865 10.4284 9.31776 9.98144 9.76472C9.53449 10.2117 8.99537 10.5558 8.40173 10.7728C7.80809 10.9899 7.17423 11.0749 6.54438 11.0217L6.56238 11.0397C5.94695 10.9845 5.32754 11.0856 4.76156 11.3335C4.19558 11.5814 3.70133 11.9682 3.32462 12.458C2.94791 12.9477 2.70093 13.5247 2.60655 14.1353C2.51218 14.746 2.57347 15.3706 2.78474 15.9512C2.99601 16.5319 3.35044 17.0498 3.81517 17.457C4.2799 17.8643 4.8399 18.1476 5.44328 18.2808C6.04665 18.4139 6.67388 18.3926 7.26685 18.2189C7.85981 18.0451 8.39931 17.7245 8.83537 17.2867H8.83338Z" fill="#813794"/>
<path d="M136.005 11.8056C137.222 11.8056 138.209 10.8188 138.209 9.60158C138.209 8.38434 137.222 7.39758 136.005 7.39758C134.788 7.39758 133.801 8.38434 133.801 9.60158C133.801 10.8188 134.788 11.8056 136.005 11.8056Z" fill="#813794"/>
<path d="M39.1119 20.132C37.7319 20.132 36.6039 19.7 35.7279 18.848C34.8519 17.984 34.4199 16.892 34.4199 15.572C34.4199 14.24 34.8759 13.136 35.7759 12.272C36.6879 11.408 37.8279 10.976 39.1839 10.976C40.5759 10.976 41.8599 11.504 42.6759 12.272L41.2479 13.94C40.6359 13.4 39.9399 13.124 39.1599 13.124C38.4399 13.124 37.8519 13.352 37.3959 13.82C36.9399 14.288 36.7119 14.864 36.7119 15.548C36.7119 16.22 36.9399 16.796 37.3839 17.276C37.8279 17.756 38.4279 17.996 39.1599 17.996C39.9399 17.996 40.7199 17.684 41.1519 17.288V16.52H39.1359V14.6H43.1799V18.44C42.0159 19.568 40.6599 20.132 39.1119 20.132ZM50.975 20H44.579V11.132H50.987V13.208H46.835V14.516H50.675V16.58H46.835V17.924H50.975V20ZM58.2012 15.944V11.132H60.4092V20H58.7172L54.6852 15.248V20H52.4892V11.132H54.0972L58.2012 15.944ZM68.5532 20H62.1572V11.132H68.5652V13.208H64.4132V14.516H68.2532V16.58H64.4132V17.924H68.5532V20ZM77.3153 20H74.7473L73.1873 17.06H72.3113V20H70.0673V11.132H73.7633C74.8313 11.132 75.6353 11.408 76.1873 11.972C76.7393 12.524 77.0153 13.22 77.0153 14.072C77.0153 15.188 76.4873 16.196 75.3953 16.712L77.3153 20ZM73.7393 13.184H72.3113V15.104H73.6553C75.0953 15.176 74.9873 13.088 73.7393 13.184ZM86.1134 20H83.8094L83.2934 18.38H80.4734L79.9454 20H77.6294L80.8694 11.132H82.9574L86.1134 20ZM81.0374 16.436H82.7534L81.9134 13.808L81.0374 16.436ZM87.9795 20V13.292H85.5195V11.132H92.6955V13.292H90.2475V20H87.9795ZM93.7392 20V11.132H95.9952V20H93.7392ZM101.935 20.144C100.603 20.144 99.499 19.7 98.611 18.824C97.735 17.948 97.291 16.856 97.291 15.572C97.291 14.288 97.735 13.196 98.623 12.308C99.511 11.42 100.615 10.976 101.923 10.976C103.243 10.976 104.347 11.42 105.235 12.308C106.123 13.196 106.567 14.288 106.567 15.572C106.567 16.856 106.123 17.936 105.235 18.824C104.359 19.7 103.255 20.144 101.935 20.144ZM101.923 17.924C102.583 17.924 103.135 17.696 103.579 17.252C104.023 16.808 104.251 16.244 104.251 15.56C104.239 14.876 104.011 14.312 103.555 13.868C103.111 13.424 102.559 13.196 101.923 13.196C101.275 13.196 100.723 13.424 100.279 13.88C99.835 14.324 99.607 14.888 99.607 15.56C99.607 16.244 99.835 16.808 100.279 17.252C100.723 17.696 101.275 17.924 101.923 17.924ZM113.572 15.944V11.132H115.78V20H114.088L110.056 15.248V20H107.86V11.132H109.468L113.572 15.944ZM127.844 20H125.54L125.024 18.38H122.204L121.676 20H119.36L122.6 11.132H124.688L127.844 20ZM122.768 16.436H124.484L123.644 13.808L122.768 16.436ZM128.767 20V11.132H131.023V20H128.767Z" fill="#813794"/>
</svg>
