<svg width="141" height="31" viewBox="0 0 141 31" fill="none" xmlns="http://www.w3.org/2000/svg">
<path d="M22.9122 14.0286C22.5332 14.4099 22.243 14.8701 22.0622 15.3763C21.8814 15.8826 21.8145 16.4225 21.8662 16.9576L21.8482 16.9396C21.9014 17.5695 21.8164 18.2033 21.5993 18.797C21.3822 19.3906 21.0382 19.9297 20.5913 20.3767C20.1443 20.8236 19.6052 21.1677 19.0115 21.3847C18.4179 21.6018 17.784 21.6868 17.1542 21.6336L17.1722 21.6516C16.4188 21.5815 15.6621 21.7454 15.0052 22.1211C14.3484 22.4968 13.8234 23.0659 13.5019 23.7509C13.1804 24.4359 13.0779 25.2033 13.2085 25.9487C13.3392 26.694 13.6965 27.3809 14.2318 27.9157C14.7671 28.4505 15.4543 28.8072 16.1997 28.9371C16.9452 29.0671 17.7125 28.9639 18.3972 28.6418C19.0819 28.3196 19.6505 27.7942 20.0256 27.137C20.4007 26.4798 20.564 25.723 20.4932 24.9696L20.5122 24.9876C20.459 24.3578 20.5439 23.7239 20.761 23.1302C20.9781 22.5366 21.3222 21.9975 21.7691 21.5505C22.2161 21.1036 22.7552 20.7595 23.3488 20.5425C23.9425 20.3254 24.5763 20.2404 25.2062 20.2936L25.1872 20.2756C25.8026 20.3309 26.4221 20.23 26.9882 19.9822C27.5542 19.7344 28.0486 19.3477 28.4254 18.858C28.8022 18.3683 29.0494 17.7913 29.1438 17.1807C29.2383 16.57 29.1771 15.9454 28.9659 15.3646C28.7547 14.7839 28.4003 14.2659 27.9356 13.8586C27.4709 13.4513 26.9109 13.1679 26.3075 13.0347C25.7041 12.9015 25.0768 12.9227 24.4838 13.0964C23.8908 13.2702 23.3513 13.5908 22.9152 14.0286H22.9122Z" fill="#394149"/>
<path d="M15.5352 19.2936L15.5162 19.2756C16.0515 19.3295 16.5921 19.2638 17.099 19.0832C17.6058 18.9026 18.0662 18.6117 18.4468 18.2314C18.8273 17.8511 19.1187 17.3909 19.2996 16.8842C19.4806 16.3775 19.5467 15.837 19.4932 15.3016L19.5122 15.3196C19.459 14.6897 19.544 14.0559 19.761 13.4622C19.9781 12.8686 20.3222 12.3295 20.7691 11.8825C21.2161 11.4356 21.7552 11.0915 22.3488 10.8745C22.9425 10.6574 23.5763 10.5724 24.2062 10.6256L24.1872 10.6076C24.9407 10.6784 25.6976 10.515 26.3548 10.1397C27.0121 9.76444 27.5375 9.19557 27.8595 8.5107C28.1815 7.82584 28.2844 7.05831 28.1542 6.3128C28.024 5.56729 27.667 4.88011 27.1318 4.34497C26.5967 3.80984 25.9095 3.4528 25.164 3.32258C24.4185 3.19235 23.651 3.29526 22.9661 3.61728C22.2812 3.93929 21.7124 4.46474 21.3371 5.12195C20.9618 5.77915 20.7984 6.53612 20.8692 7.2896L20.8512 7.2706C20.9045 7.90049 20.8197 8.53443 20.6027 9.12815C20.3857 9.72187 20.0416 10.2611 19.5947 10.7081C19.1477 11.155 18.6085 11.4991 18.0148 11.7161C17.421 11.9331 16.7871 12.0179 16.1572 11.9646L16.1752 11.9836C15.6399 11.9297 15.0992 11.9954 14.5924 12.176C14.0856 12.3565 13.6252 12.6475 13.2446 13.0278C12.864 13.4081 12.5727 13.8683 12.3917 14.375C12.2108 14.8817 12.1447 15.4222 12.1982 15.9576L12.1802 15.9396C12.2332 16.5694 12.1481 17.2032 11.931 17.7968C11.7138 18.3903 11.3698 18.9294 10.9229 19.3763C10.476 19.8232 9.93693 20.1672 9.34337 20.3844C8.74981 20.6015 8.11602 20.6866 7.48621 20.6336L7.50421 20.6516C6.75073 20.5808 5.99376 20.7442 5.33655 21.1195C4.67935 21.4948 4.1539 22.0636 3.83189 22.7485C3.50987 23.4334 3.40695 24.2009 3.53718 24.9464C3.66741 25.6919 4.02445 26.3791 4.55958 26.9142C5.09472 27.4494 5.7819 27.8064 6.52741 27.9366C7.27292 28.0668 8.04045 27.9639 8.72532 27.6419C9.41018 27.3199 9.97905 26.7945 10.3543 26.1373C10.7296 25.48 10.893 24.7231 10.8222 23.9696L10.8412 23.9876C10.788 23.3577 10.873 22.7239 11.0901 22.1302C11.3071 21.5366 11.6512 20.9975 12.0981 20.5505C12.5451 20.1036 13.0842 19.7595 13.6778 19.5425C14.2715 19.3254 14.9053 19.2404 15.5352 19.2936Z" fill="#394149"/>
<path d="M8.83321 17.2866C9.21223 16.9054 9.50241 16.4452 9.68305 15.9389C9.86369 15.4326 9.93033 14.8926 9.87821 14.3576L9.8972 14.3756C9.844 13.7456 9.92896 13.1115 10.1462 12.5177C10.3634 11.9239 10.7076 11.3847 11.1548 10.9377C11.602 10.4907 12.1413 10.1467 12.7352 9.92978C13.3291 9.71282 13.9632 9.62812 14.5932 9.6816L14.5742 9.6636C15.3274 9.73417 16.0841 9.57068 16.741 9.19544C17.3979 8.82021 17.923 8.25148 18.2449 7.56683C18.5667 6.88217 18.6695 6.11492 18.5393 5.36969C18.4091 4.62446 18.0521 3.93754 17.5172 3.4026C16.9823 2.86766 16.2953 2.51074 15.5501 2.38052C14.8049 2.25029 14.0376 2.35311 13.353 2.67493C12.6683 2.99675 12.0996 3.52192 11.7244 4.17882C11.3491 4.83572 11.1856 5.59238 11.2562 6.3456L11.2382 6.3276C11.2914 6.95745 11.2064 7.59132 10.9893 8.18496C10.7722 8.7786 10.4282 9.31771 9.98127 9.76467C9.53432 10.2116 8.9952 10.5557 8.40156 10.7727C7.80792 10.9898 7.17406 11.0748 6.54421 11.0216L6.56221 11.0396C5.94678 10.9844 5.32737 11.0855 4.76139 11.3334C4.19541 11.5813 3.70116 11.9681 3.32445 12.4579C2.94774 12.9476 2.70076 13.5246 2.60638 14.1352C2.51201 14.7459 2.5733 15.3705 2.78457 15.9511C2.99584 16.5318 3.35027 17.0497 3.815 17.4569C4.27973 17.8642 4.83973 18.1475 5.44311 18.2807C6.04648 18.4138 6.67371 18.3925 7.26668 18.2188C7.85964 18.045 8.39914 17.7244 8.8352 17.2866H8.83321Z" fill="#394149"/>
<path d="M136.005 11.8056C137.222 11.8056 138.209 10.8188 138.209 9.6016C138.209 8.38436 137.222 7.3976 136.005 7.3976C134.788 7.3976 133.801 8.38436 133.801 9.6016C133.801 10.8188 134.788 11.8056 136.005 11.8056Z" fill="#394149"/>
<path d="M39.112 20.132C37.732 20.132 36.604 19.7 35.728 18.848C34.852 17.984 34.42 16.892 34.42 15.572C34.42 14.24 34.876 13.136 35.776 12.272C36.688 11.408 37.828 10.976 39.184 10.976C40.576 10.976 41.86 11.504 42.676 12.272L41.248 13.94C40.636 13.4 39.94 13.124 39.16 13.124C38.44 13.124 37.852 13.352 37.396 13.82C36.94 14.288 36.712 14.864 36.712 15.548C36.712 16.22 36.94 16.796 37.384 17.276C37.828 17.756 38.428 17.996 39.16 17.996C39.94 17.996 40.72 17.684 41.152 17.288V16.52H39.136V14.6H43.18V18.44C42.016 19.568 40.66 20.132 39.112 20.132ZM50.9751 20H44.5791V11.132H50.9871V13.208H46.8351V14.516H50.6751V16.58H46.8351V17.924H50.9751V20ZM58.2013 15.944V11.132H60.4093V20H58.7173L54.6853 15.248V20H52.4893V11.132H54.0973L58.2013 15.944ZM68.5533 20H62.1573V11.132H68.5653V13.208H64.4133V14.516H68.2533V16.58H64.4133V17.924H68.5533V20ZM77.3154 20H74.7474L73.1874 17.06H72.3114V20H70.0674V11.132H73.7634C74.8314 11.132 75.6354 11.408 76.1874 11.972C76.7394 12.524 77.0154 13.22 77.0154 14.072C77.0154 15.188 76.4874 16.196 75.3954 16.712L77.3154 20ZM73.7394 13.184H72.3114V15.104H73.6554C75.0954 15.176 74.9874 13.088 73.7394 13.184ZM86.1135 20H83.8095L83.2935 18.38H80.4735L79.9455 20H77.6295L80.8695 11.132H82.9575L86.1135 20ZM81.0375 16.436H82.7535L81.9135 13.808L81.0375 16.436ZM87.9796 20V13.292H85.5196V11.132H92.6956V13.292H90.2476V20H87.9796ZM93.7393 20V11.132H95.9953V20H93.7393ZM101.935 20.144C100.603 20.144 99.4991 19.7 98.6111 18.824C97.7351 17.948 97.2911 16.856 97.2911 15.572C97.2911 14.288 97.7351 13.196 98.6231 12.308C99.5111 11.42 100.615 10.976 101.923 10.976C103.243 10.976 104.347 11.42 105.235 12.308C106.123 13.196 106.567 14.288 106.567 15.572C106.567 16.856 106.123 17.936 105.235 18.824C104.359 19.7 103.255 20.144 101.935 20.144ZM101.923 17.924C102.583 17.924 103.135 17.696 103.579 17.252C104.023 16.808 104.251 16.244 104.251 15.56C104.239 14.876 104.011 14.312 103.555 13.868C103.111 13.424 102.559 13.196 101.923 13.196C101.275 13.196 100.723 13.424 100.279 13.88C99.8351 14.324 99.6071 14.888 99.6071 15.56C99.6071 16.244 99.8351 16.808 100.279 17.252C100.723 17.696 101.275 17.924 101.923 17.924ZM113.572 15.944V11.132H115.78V20H114.088L110.056 15.248V20H107.86V11.132H109.468L113.572 15.944ZM127.844 20H125.54L125.024 18.38H122.204L121.676 20H119.36L122.6 11.132H124.688L127.844 20ZM122.768 16.436H124.484L123.644 13.808L122.768 16.436ZM128.767 20V11.132H131.023V20H128.767Z" fill="#394149"/>
</svg>
