<svg width="690" height="458" viewBox="0 0 690 458" fill="none" xmlns="http://www.w3.org/2000/svg">
<path d="M298.16 304.921C299.37 304.061 300.67 303.391 302.03 302.891L302.56 298.881L309.23 298.271L310.48 302.121C311.91 302.361 313.31 302.791 314.65 303.411L317.86 300.951L323.01 305.231L321.17 308.841C322.03 310.051 322.7 311.351 323.2 312.711L327.21 313.241L327.82 319.911L323.97 321.161C323.73 322.581 323.3 323.991 322.68 325.331L325.14 328.541L320.86 333.691L317.25 331.851C316.04 332.711 314.74 333.381 313.38 333.881L312.85 337.891L306.18 338.501L304.93 334.651C303.5 334.411 302.1 333.981 300.76 333.361L297.55 335.821L292.4 331.541L294.24 327.931C293.38 326.721 292.7 325.421 292.21 324.061L288.2 323.531L287.59 316.861L291.44 315.611C291.68 314.191 292.11 312.781 292.73 311.441L290.27 308.231L294.55 303.081L298.16 304.921ZM302.38 313.551C299.84 316.601 300.26 321.131 303.31 323.671C306.36 326.211 310.89 325.791 313.43 322.741C315.97 319.691 315.55 315.161 312.5 312.621C309.45 310.081 304.92 310.501 302.38 313.551Z" fill="#E0E0E0"/>
<path d="M463.8 50.2211C465.01 49.3611 466.31 48.6911 467.67 48.1911L468.2 44.1811L474.87 43.5711L476.12 47.4211C477.55 47.6611 478.95 48.0911 480.29 48.7111L483.5 46.2511L488.65 50.5311L486.81 54.1411C487.67 55.3511 488.34 56.6511 488.84 58.0111L492.85 58.5411L493.46 65.2111L489.61 66.4611C489.37 67.8911 488.94 69.2911 488.32 70.6311L490.78 73.8411L486.5 78.9911L482.89 77.1511C481.68 78.0111 480.38 78.6811 479.02 79.1811L478.49 83.1911L471.82 83.8011L470.57 79.9511C469.14 79.7111 467.74 79.2811 466.4 78.6611L463.19 81.1211L458.04 76.8411L459.88 73.2311C459.02 72.0211 458.34 70.7211 457.85 69.3611L453.84 68.8311L453.23 62.1611L457.08 60.9111C457.32 59.4811 457.75 58.0811 458.37 56.7411L455.91 53.5311L460.19 48.3811L463.8 50.2211ZM468.02 58.8511C465.48 61.9011 465.9 66.4311 468.95 68.9711C472 71.5111 476.53 71.0911 479.07 68.0411C481.61 64.9911 481.19 60.4611 478.14 57.9211C475.09 55.3811 470.56 55.8011 468.02 58.8511Z" fill="#F5F5F5"/>
<path d="M426.51 28.9211C427.47 28.2411 428.51 27.7011 429.59 27.3011L430.01 24.1111L435.32 23.6211L436.32 26.6811C437.45 26.8711 438.57 27.2111 439.64 27.7111L442.2 25.7511L446.3 29.1611L444.84 32.0311C445.52 32.9911 446.06 34.0311 446.46 35.1111L449.65 35.5311L450.14 40.8411L447.08 41.8411C446.89 42.9711 446.55 44.0911 446.05 45.1611L448.01 47.7211L444.6 51.8211L441.73 50.3611C440.77 51.0411 439.73 51.5811 438.65 51.9811L438.23 55.1711L432.92 55.6611L431.92 52.6011C430.79 52.4111 429.67 52.0711 428.6 51.5711L426.04 53.5311L421.94 50.1211L423.4 47.2511C422.72 46.2911 422.18 45.2511 421.78 44.1711L418.59 43.7511L418.1 38.4411L421.16 37.4411C421.35 36.3111 421.69 35.1911 422.19 34.1211L420.23 31.5611L423.64 27.4611L426.51 28.9211ZM429.87 35.7911C427.85 38.2211 428.18 41.8211 430.61 43.8411C433.04 45.8611 436.64 45.5311 438.66 43.1011C440.68 40.6711 440.35 37.0711 437.92 35.0511C435.49 33.0311 431.89 33.3611 429.87 35.7911Z" fill="#F5F5F5"/>
<path d="M188.16 183.021C189.12 182.341 190.16 181.801 191.24 181.401L191.66 178.211L196.97 177.721L197.97 180.781C199.1 180.971 200.22 181.311 201.29 181.811L203.85 179.851L207.95 183.261L206.49 186.131C207.17 187.091 207.71 188.131 208.11 189.211L211.3 189.631L211.79 194.941L208.73 195.941C208.54 197.071 208.2 198.191 207.7 199.261L209.66 201.821L206.25 205.921L203.38 204.461C202.42 205.141 201.38 205.681 200.3 206.081L199.88 209.271L194.57 209.761L193.57 206.701C192.44 206.511 191.32 206.171 190.25 205.671L187.69 207.631L183.59 204.221L185.05 201.351C184.37 200.391 183.83 199.351 183.43 198.271L180.24 197.851L179.75 192.541L182.81 191.541C183 190.411 183.34 189.291 183.84 188.221L181.88 185.661L185.29 181.561L188.16 183.021ZM191.52 189.891C189.5 192.321 189.83 195.921 192.26 197.941C194.69 199.961 198.29 199.631 200.31 197.201C202.33 194.771 202 191.171 199.57 189.151C197.14 187.131 193.54 187.461 191.52 189.891Z" fill="#F5F5F5"/>
<path d="M376.91 365.331C378.12 364.471 379.42 363.801 380.78 363.301L381.31 359.291L387.98 358.681L389.23 362.531C390.66 362.771 392.06 363.201 393.4 363.821L396.61 361.361L401.76 365.641L399.92 369.251C400.78 370.461 401.45 371.761 401.95 373.121L405.96 373.651L406.57 380.321L402.72 381.571C402.48 382.991 402.05 384.401 401.43 385.741L403.89 388.951L399.61 394.101L396 392.261C394.79 393.121 393.49 393.791 392.13 394.291L391.6 398.301L384.93 398.911L383.68 395.061C382.25 394.821 380.85 394.391 379.51 393.771L376.3 396.231L371.15 391.951L372.99 388.341C372.13 387.131 371.45 385.831 370.96 384.471L366.95 383.941L366.34 377.271L370.19 376.021C370.43 374.601 370.86 373.191 371.48 371.851L369.02 368.641L373.3 363.491L376.91 365.331ZM381.13 373.961C378.59 377.011 379.01 381.541 382.06 384.081C385.11 386.621 389.64 386.201 392.18 383.151C394.72 380.101 394.3 375.571 391.25 373.031C388.2 370.491 383.67 370.911 381.13 373.961Z" fill="#E0E0E0"/>
<path d="M358.99 141.741C360.2 140.881 361.5 140.211 362.86 139.711L363.39 135.701L370.06 135.091L371.31 138.941C372.74 139.181 374.14 139.611 375.48 140.231L378.69 137.771L383.84 142.051L382 145.661C382.86 146.871 383.53 148.171 384.03 149.531L388.04 150.061L388.65 156.731L384.8 157.981C384.56 159.401 384.13 160.811 383.51 162.151L385.97 165.361L381.69 170.511L378.08 168.671C376.87 169.531 375.57 170.201 374.21 170.701L373.68 174.711L367.01 175.321L365.76 171.471C364.33 171.231 362.93 170.801 361.59 170.181L358.38 172.641L353.23 168.361L355.07 164.751C354.21 163.541 353.53 162.241 353.04 160.881L349.03 160.351L348.42 153.681L352.27 152.431C352.51 151.001 352.94 149.601 353.56 148.261L351.1 145.051L355.38 139.901L358.99 141.741ZM363.21 150.371C360.67 153.421 361.09 157.951 364.14 160.491C367.19 163.031 371.72 162.611 374.26 159.561C376.8 156.511 376.38 151.981 373.33 149.441C370.28 146.901 365.75 147.321 363.21 150.371Z" fill="#E0E0E0"/>
<path d="M291.19 115.671H216.86C214.772 115.671 213.08 117.364 213.08 119.451V156.031C213.08 158.119 214.772 159.811 216.86 159.811H291.19C293.278 159.811 294.97 158.119 294.97 156.031V119.451C294.97 117.364 293.278 115.671 291.19 115.671Z" fill="#EBEBEB"/>
<path d="M224.59 122.781H221.38V124.911H224.59V122.781Z" fill="#E0E0E0"/>
<path d="M236.36 132.591H233.15V134.721H236.36V132.591Z" fill="#FAFAFA"/>
<path d="M283.51 150.311H277.25V152.441H283.51V150.311Z" fill="#FAFAFA"/>
<path d="M259.92 145.661H253.66V147.791H259.92V145.661Z" fill="#E0E0E0"/>
<path d="M237.23 141.671H230.97V143.801H237.23V141.671Z" fill="#FAFAFA"/>
<path d="M275.95 150.311H266.07V152.441H275.95V150.311Z" fill="#FAFAFA"/>
<path d="M226.58 127.531H221.38V129.661H226.58V127.531Z" fill="#FAFAFA"/>
<path d="M231.03 132.671H221.38V134.801H231.03V132.671Z" fill="#FAFAFA"/>
<path d="M235.5 136.611H221.38V138.741H235.5V136.611Z" fill="#E0E0E0"/>
<path d="M261.08 136.611H246.96V138.741H261.08V136.611Z" fill="#FAFAFA"/>
<path d="M250.67 145.661H230.84V147.791H250.67V145.661Z" fill="#FAFAFA"/>
<path d="M264.37 150.311H230.84V152.441H264.37V150.311Z" fill="#FAFAFA"/>
<path d="M245.46 136.611H236.99V138.741H245.46V136.611Z" fill="#FAFAFA"/>
<path d="M234.59 122.781H225.85V124.911H234.59V122.781Z" fill="#FAFAFA"/>
<path d="M236.52 127.531H227.78V129.661H236.52V127.531Z" fill="#FAFAFA"/>
<path d="M270.38 127.531H247.24V129.661H270.38V127.531Z" fill="#FAFAFA"/>
<path d="M282.59 127.531H272.04V129.661H282.59V127.531Z" fill="#FAFAFA"/>
<path d="M245.18 127.531H237.95V129.661H245.18V127.531Z" fill="#FAFAFA"/>
<path d="M247.25 122.781H235.79V124.911H247.25V122.781Z" fill="#FAFAFA"/>
<path d="M254.89 122.781H248.51V124.911H254.89V122.781Z" fill="#E0E0E0"/>
<path d="M255.11 288.761H173.32V350.481H255.11V288.761Z" fill="#EBEBEB"/>
<path d="M255.5 288.761H210.36V350.481H255.5V288.761Z" fill="#F5F5F5"/>
<path d="M210.42 350.781C210.28 350.781 210.16 336.901 210.16 319.791C210.16 302.681 210.28 288.801 210.42 288.801C210.56 288.801 210.68 302.671 210.68 319.791C210.68 336.911 210.56 350.781 210.42 350.781Z" fill="#E0E0E0"/>
<path d="M240.36 288.761H229.1V300.021H240.36V288.761Z" fill="#FAFAFA"/>
<path d="M240.36 339.071H229.1V350.331H240.36V339.071Z" fill="#FAFAFA"/>
<path d="M497.82 380.691H416.03V442.411H497.82V380.691Z" fill="#EBEBEB"/>
<path d="M498.2 380.691H453.06V442.411H498.2V380.691Z" fill="#F5F5F5"/>
<path d="M453.13 442.711C452.99 442.711 452.87 428.831 452.87 411.721C452.87 394.611 452.99 380.731 453.13 380.731C453.27 380.731 453.39 394.601 453.39 411.721C453.39 428.841 453.27 442.711 453.13 442.711Z" fill="#E0E0E0"/>
<path d="M483.07 380.691H471.81V391.951H483.07V380.691Z" fill="#FAFAFA"/>
<path d="M483.07 430.991H471.81V442.251H483.07V430.991Z" fill="#FAFAFA"/>
<path d="M280.55 350.361H159.7V441.551H280.55V350.361Z" fill="#EBEBEB"/>
<path d="M281.11 350.361H214.41V441.551H281.11V350.361Z" fill="#F5F5F5"/>
<path d="M214.51 441.991C214.37 441.991 214.25 421.491 214.25 396.201C214.25 370.911 214.37 350.411 214.51 350.411C214.65 350.411 214.77 370.911 214.77 396.201C214.77 421.491 214.65 441.991 214.51 441.991Z" fill="#E0E0E0"/>
<path d="M258.75 350.361H242.11V367.001H258.75V350.361Z" fill="#FAFAFA"/>
<path d="M258.75 424.691H242.11V441.331H258.75V424.691Z" fill="#FAFAFA"/>
<path d="M279.71 350.331C279.71 350.471 253.01 350.591 220.09 350.591C187.17 350.591 160.46 350.471 160.46 350.331C160.46 350.191 187.15 350.071 220.09 350.071C253.03 350.071 279.71 350.191 279.71 350.331Z" fill="#E0E0E0"/>
<path d="M666.74 19.2411H535.49V229.601H666.74V19.2411Z" fill="#F5F5F5"/>
<path d="M659.19 25.7411H543.04V223.111H659.19V25.7411Z" fill="white"/>
<path d="M659.69 83.5611H536.71V88.3411H659.69V83.5611Z" fill="#F5F5F5"/>
<path d="M662.61 156.371H539.63V161.151H662.61V156.371Z" fill="#F5F5F5"/>
<path d="M592.35 118.171C592.44 118.261 586.11 124.941 578.21 133.091C570.31 141.241 563.82 147.771 563.73 147.681C563.64 147.591 569.97 140.911 577.87 132.761C585.77 124.611 592.25 118.081 592.35 118.171Z" fill="#E0E0E0"/>
<path d="M645.24 180.781C645.33 180.871 639 187.551 631.1 195.701C623.2 203.851 616.71 210.381 616.62 210.291C616.53 210.201 622.86 203.521 630.76 195.371C638.66 187.221 645.14 180.691 645.24 180.781Z" fill="#E0E0E0"/>
<path d="M595.65 100.091C595.74 100.181 586.09 109.761 574.09 121.481C562.09 133.201 552.29 142.631 552.2 142.531C552.11 142.441 561.76 132.861 573.76 121.141C585.76 109.421 595.56 100.001 595.65 100.091Z" fill="#E0E0E0"/>
<path d="M643.82 45.1511C643.82 45.1511 643.6 45.4911 643.13 46.0411C642.66 46.5911 641.97 47.3711 641.1 48.3211C639.36 50.2211 636.9 52.8011 634.08 55.5411C631.26 58.2811 628.61 60.6711 626.66 62.3511C625.68 63.1911 624.88 63.8611 624.32 64.3111C623.76 64.7611 623.44 65.0011 623.41 64.9711C623.39 64.9511 623.67 64.6611 624.19 64.1711C624.79 63.6111 625.54 62.9211 626.43 62.1011C628.32 60.3611 630.93 57.9411 633.74 55.2011C636.55 52.4611 639.05 49.9311 640.85 48.0911C641.7 47.2311 642.41 46.5011 642.98 45.9111C643.49 45.4011 643.78 45.1311 643.8 45.1511H643.82Z" fill="#E0E0E0"/>
<path d="M607.73 23.6211H601.38V226.251H607.73V23.6211Z" fill="#F5F5F5"/>
<path d="M163.17 19.2411H31.92V229.601H163.17V19.2411Z" fill="#F5F5F5"/>
<path d="M155.62 25.7411H39.47V223.111H155.62V25.7411Z" fill="white"/>
<path d="M156.12 83.5611H33.14V88.3411H156.12V83.5611Z" fill="#F5F5F5"/>
<path d="M159.03 156.371H36.05V161.151H159.03V156.371Z" fill="#F5F5F5"/>
<path d="M88.78 118.171C88.87 118.261 82.54 124.941 74.64 133.091C66.74 141.241 60.25 147.771 60.16 147.681C60.07 147.591 66.4 140.911 74.3 132.761C82.2 124.611 88.68 118.081 88.78 118.171Z" fill="#E0E0E0"/>
<path d="M141.67 180.781C141.76 180.871 135.43 187.551 127.53 195.701C119.63 203.851 113.14 210.381 113.05 210.291C112.96 210.201 119.29 203.521 127.19 195.371C135.09 187.221 141.57 180.691 141.67 180.781Z" fill="#E0E0E0"/>
<path d="M92.08 100.091C92.17 100.181 82.52 109.761 70.52 121.481C58.52 133.201 48.72 142.631 48.63 142.531C48.54 142.441 58.19 132.861 70.19 121.141C82.19 109.421 91.99 100.001 92.08 100.091Z" fill="#E0E0E0"/>
<path d="M140.25 45.1511C140.25 45.1511 140.03 45.4911 139.56 46.0411C139.09 46.5911 138.4 47.3711 137.53 48.3211C135.79 50.2211 133.33 52.8011 130.51 55.5411C127.69 58.2811 125.04 60.6711 123.09 62.3511C122.11 63.1911 121.31 63.8611 120.75 64.3111C120.19 64.7611 119.87 65.0011 119.84 64.9711C119.82 64.9511 120.1 64.6611 120.62 64.1711C121.22 63.6111 121.97 62.9211 122.86 62.1011C124.75 60.3611 127.36 57.9411 130.17 55.2011C132.98 52.4611 135.48 49.9311 137.28 48.0911C138.13 47.2311 138.84 46.5011 139.41 45.9111C139.92 45.4011 140.21 45.1311 140.23 45.1511H140.25Z" fill="#E0E0E0"/>
<path d="M104.16 23.6211H97.81V226.251H104.16V23.6211Z" fill="#F5F5F5"/>
<path d="M678.36 442.711C678.36 442.851 526.6 442.971 339.45 442.971C152.3 442.971 0.5 442.851 0.5 442.711C0.5 442.571 152.22 442.451 339.45 442.451C526.68 442.451 678.36 442.571 678.36 442.711Z" fill="#263238"/>
<path d="M542.56 141.051L550 141.011C552.63 144.351 556.18 147.021 560.46 148.591C572.76 153.101 586.4 146.791 590.91 134.481C595.42 122.181 589.11 108.541 576.8 104.031C564.5 99.5212 550.86 105.831 546.35 118.141C544.47 123.281 544.48 128.651 546.01 133.491L542.56 141.061V141.051Z" fill="white"/>
<path d="M542.56 141.051C542.56 141.051 542.65 140.881 542.8 140.551C542.96 140.211 543.18 139.731 543.48 139.101C544.07 137.821 544.95 135.941 546.08 133.501H545.95V133.521C545.95 133.521 546.02 133.571 546.06 133.541C546.09 133.521 546.1 133.491 546.09 133.451C545.17 130.501 544.53 126.421 545.45 121.781C545.68 120.631 546 119.441 546.43 118.261C546.92 117.101 547.39 115.871 548.09 114.721C549.41 112.381 551.22 110.121 553.53 108.201C555.83 106.291 558.62 104.731 561.73 103.781C564.84 102.831 568.27 102.491 571.73 102.951C578.63 103.801 585.53 108.151 589.21 114.881C591.07 118.301 592.14 122.091 592.17 125.841C592.24 129.581 591.41 133.241 589.9 136.451C588.4 139.671 586.16 142.391 583.61 144.501C581.05 146.601 578.16 148.081 575.25 148.931C572.34 149.791 569.41 150.031 566.7 149.821C566.36 149.791 566.03 149.751 565.69 149.721C565.36 149.691 565.03 149.661 564.7 149.581C564.05 149.451 563.42 149.321 562.79 149.201C561.58 148.811 560.38 148.501 559.3 148.021C554.93 146.161 551.93 143.351 550.05 140.981C550.04 140.961 550.01 140.951 549.99 140.951C547.59 140.981 545.74 141.011 544.48 141.021C543.86 141.031 543.38 141.041 543.05 141.041C542.73 141.041 542.55 141.051 542.55 141.051C542.55 141.051 542.7 141.051 543.02 141.051C543.35 141.051 543.82 141.051 544.43 141.051C545.7 141.051 547.57 141.051 549.99 141.061L549.93 141.031C551.8 143.431 554.8 146.291 559.21 148.191C560.3 148.691 561.5 149.001 562.73 149.401C563.36 149.531 564 149.661 564.65 149.801C564.97 149.881 565.31 149.921 565.64 149.951C565.98 149.981 566.32 150.021 566.66 150.051C569.4 150.281 572.36 150.051 575.31 149.181C578.26 148.321 581.19 146.841 583.79 144.711C586.38 142.591 588.65 139.831 590.18 136.571C591.72 133.321 592.56 129.621 592.5 125.821C592.48 122.021 591.39 118.171 589.5 114.701C589.29 114.261 589.02 113.861 588.76 113.461L587.97 112.261L587.08 111.141C586.79 110.761 586.49 110.391 586.15 110.061C585.82 109.721 585.49 109.381 585.16 109.041C584.84 108.691 584.45 108.421 584.1 108.111C583.74 107.811 583.39 107.491 583.02 107.221C582.64 106.961 582.25 106.691 581.87 106.431C578.78 104.361 575.28 103.071 571.78 102.631C568.28 102.171 564.8 102.521 561.65 103.491C558.5 104.461 555.68 106.041 553.35 107.981C551.02 109.921 549.2 112.221 547.87 114.591C547.17 115.761 546.7 117.001 546.2 118.181C545.76 119.381 545.45 120.581 545.22 121.741C544.31 126.431 544.98 130.541 545.93 133.501L546.06 133.441C546.06 133.441 545.99 133.381 545.96 133.411C545.95 133.411 545.94 133.431 545.93 133.441C544.82 135.921 543.97 137.831 543.39 139.131C543.11 139.761 542.9 140.241 542.75 140.571C542.61 140.891 542.54 141.051 542.54 141.051H542.56Z" fill="#263238"/>
<path d="M568.68 150.391C568.01 150.391 567.33 150.361 566.66 150.311L565.64 150.211C565.34 150.191 564.97 150.151 564.61 150.061L562.69 149.671C562.37 149.571 562.07 149.481 561.78 149.391C560.84 149.101 559.96 148.831 559.12 148.451C554.55 146.481 551.57 143.521 549.85 141.341L543.03 141.321C542.71 141.321 542.55 141.321 542.55 141.321V141.081L542.33 140.981C542.33 140.981 542.4 140.821 542.54 140.491L545.65 133.521L545.53 133.331H545.62C544.8 130.631 544.06 126.511 544.99 121.731C545.23 120.481 545.56 119.271 545.98 118.131L546.21 117.571C546.63 116.551 547.06 115.511 547.67 114.501C549.1 111.941 550.97 109.701 553.2 107.831C555.63 105.801 558.53 104.231 561.58 103.291C564.87 102.281 568.41 101.981 571.81 102.421C575.39 102.871 578.92 104.201 582 106.261L583.15 107.051C583.4 107.231 583.64 107.441 583.87 107.641C583.99 107.751 584.12 107.851 584.25 107.961C584.38 108.081 584.51 108.181 584.63 108.281C584.87 108.481 585.11 108.681 585.33 108.921L586.32 109.931C586.66 110.261 586.95 110.621 587.27 111.031L588.16 112.151L589.06 113.521C589.29 113.881 589.54 114.241 589.73 114.641C591.68 118.221 592.73 122.111 592.75 125.861C592.81 129.591 592 133.341 590.41 136.721C588.96 139.831 586.72 142.671 583.95 144.951C581.45 147.001 578.48 148.561 575.38 149.471C573.19 150.111 570.94 150.431 568.67 150.431L568.68 150.391ZM550.67 141.311C552.4 143.361 555.23 146.001 559.41 147.771C560.21 148.131 561.07 148.391 561.97 148.671C562.27 148.761 562.57 148.851 562.87 148.951L564.75 149.331C565.08 149.411 565.42 149.441 565.71 149.471L566.72 149.571C569.58 149.801 572.43 149.501 575.17 148.691C578.17 147.811 581.03 146.291 583.45 144.301C586.12 142.091 588.28 139.341 589.68 136.341C591.22 133.081 591.99 129.451 591.93 125.841C591.91 122.221 590.89 118.471 589 115.001C585.49 108.601 578.87 104.081 571.71 103.201C568.42 102.771 565 103.051 561.82 104.021C558.87 104.921 556.06 106.431 553.7 108.391C551.53 110.191 549.72 112.361 548.32 114.841C547.74 115.801 547.32 116.811 546.91 117.791L546.67 118.351C546.27 119.441 545.94 120.621 545.7 121.821C544.76 126.531 545.49 130.601 546.28 133.221H546.48L546.38 133.431L546.44 133.521L546.33 133.581C546.33 133.581 546.3 133.651 546.28 133.671L543.04 140.631C543.04 140.631 543 140.721 542.98 140.761C543.01 140.761 543.04 140.761 543.07 140.761L549.37 140.671L549.11 140.341L549.79 140.671H550.14L550.27 140.791C550.32 140.851 550.36 140.911 550.41 140.971L551.05 141.281H550.67V141.311Z" fill="#263238"/>
<path d="M556.55 127.341L559.86 123.671L566.9 129.311L577.34 117.321L580.76 120.651L566.74 136.071L556.55 127.341Z" fill="#496281"/>
<path d="M474.15 61.1511H389.64C387.552 61.1511 385.86 62.8435 385.86 64.9311V122.881C385.86 124.969 387.552 126.661 389.64 126.661H474.15C476.238 126.661 477.93 124.969 477.93 122.881V64.9311C477.93 62.8435 476.238 61.1511 474.15 61.1511Z" fill="#263238"/>
<path d="M401.41 69.5311H397.81V71.9211H401.41V69.5311Z" fill="#496281"/>
<path d="M414.64 80.5611H411.04V82.9511H414.64V80.5611Z" fill="#455A64"/>
<path d="M467.66 100.481H460.62V102.871H467.66V100.481Z" fill="#455A64"/>
<path d="M441.15 95.2511H434.11V97.6412H441.15V95.2511Z" fill="#E0E0E0"/>
<path d="M415.63 90.7611H408.59V93.1511H415.63V90.7611Z" fill="#455A64"/>
<path d="M459.16 100.481H448.06V102.871H459.16V100.481Z" fill="#455A64"/>
<path d="M403.66 74.8611H397.81V77.2511H403.66V74.8611Z" fill="#455A64"/>
<path d="M408.66 80.6511H397.81V83.0411H408.66V80.6511Z" fill="#455A64"/>
<path d="M413.69 85.0811H397.81V87.4711H413.69V85.0811Z" fill="#496281"/>
<path d="M442.45 85.0811H426.57V87.4711H442.45V85.0811Z" fill="#455A64"/>
<path d="M430.74 95.2511H408.45V97.6412H430.74V95.2511Z" fill="#455A64"/>
<path d="M446.15 100.481H408.45V102.871H446.15V100.481Z" fill="#455A64"/>
<path d="M434.74 105.711H397.04V108.101H434.74V105.711Z" fill="#455A64"/>
<path d="M424.88 85.0811H415.36V87.4711H424.88V85.0811Z" fill="#455A64"/>
<path d="M412.66 69.5311H402.83V71.9211H412.66V69.5311Z" fill="#455A64"/>
<path d="M414.83 74.8611H405V77.2511H414.83V74.8611Z" fill="#455A64"/>
<path d="M452.9 74.8611H426.88V77.2511H452.9V74.8611Z" fill="#455A64"/>
<path d="M466.62 74.8611H454.76V77.2511H466.62V74.8611Z" fill="#455A64"/>
<path d="M424.57 74.8611H416.44V77.2511H424.57V74.8611Z" fill="#455A64"/>
<path d="M426.89 69.5311H414.01V71.9211H426.89V69.5311Z" fill="#455A64"/>
<path d="M435.48 69.5311H428.31V71.9211H435.48V69.5311Z" fill="#E0E0E0"/>
<path d="M413.75 117.001H410.15V119.391H413.75V117.001Z" fill="#E0E0E0"/>
<path d="M407.96 117.001H397.11V119.391H407.96V117.001Z" fill="#496281"/>
<path d="M408.03 111.211H397.04V113.601H408.03V111.211Z" fill="#455A64"/>
<path d="M435.01 111.211H410.15V113.601H435.01V111.211Z" fill="#455A64"/>
<path d="M460.62 126.661L471.08 137.121L472.59 124.041L460.62 126.661Z" fill="#263238"/>
<path d="M271.04 231.601H186.89C184.802 231.601 183.11 233.294 183.11 235.381V277.251C183.11 279.339 184.802 281.031 186.89 281.031H271.04C273.128 281.031 274.82 279.339 274.82 277.251V235.381C274.82 233.294 273.128 231.601 271.04 231.601Z" fill="#263238"/>
<path d="M196 239.571H192.41V241.951H196V239.571Z" fill="#496281"/>
<path d="M209.18 250.551H205.59V252.931H209.18V250.551Z" fill="#455A64"/>
<path d="M261.98 270.391H254.97V272.771H261.98V270.391Z" fill="#455A64"/>
<path d="M235.57 265.181H228.56V267.561H235.57V265.181Z" fill="#E0E0E0"/>
<path d="M210.15 260.711H203.14V263.091H210.15V260.711Z" fill="#455A64"/>
<path d="M253.52 270.391H242.46V272.771H253.52V270.391Z" fill="#455A64"/>
<path d="M198.24 244.881H192.41V247.261H198.24V244.881Z" fill="#455A64"/>
<path d="M203.22 250.641H192.41V253.021H203.22V250.641Z" fill="#455A64"/>
<path d="M208.22 255.051H192.41V257.431H208.22V255.051Z" fill="#496281"/>
<path d="M236.86 255.051H221.05V257.431H236.86V255.051Z" fill="#455A64"/>
<path d="M225.21 265.181H203.01V267.561H225.21V265.181Z" fill="#455A64"/>
<path d="M240.56 270.391H203.01V272.771H240.56V270.391Z" fill="#455A64"/>
<path d="M219.38 255.051H209.89V257.431H219.38V255.051Z" fill="#455A64"/>
<path d="M207.2 239.571H197.41V241.951H207.2V239.571Z" fill="#455A64"/>
<path d="M209.36 244.881H199.57V247.261H209.36V244.881Z" fill="#455A64"/>
<path d="M247.28 244.881H221.36V247.261H247.28V244.881Z" fill="#455A64"/>
<path d="M260.96 244.881H249.14V247.261H260.96V244.881Z" fill="#455A64"/>
<path d="M219.07 244.881H210.97V247.261H219.07V244.881Z" fill="#455A64"/>
<path d="M221.37 239.571H208.54V241.951H221.37V239.571Z" fill="#455A64"/>
<path d="M229.93 239.571H222.79V241.951H229.93V239.571Z" fill="#E0E0E0"/>
<path d="M273.99 248.291L283.46 253.231L274.81 258.991L273.99 248.291Z" fill="#263238"/>
<path d="M458.789 302.971L448.907 308.614L453.643 316.907L463.525 311.263L458.789 302.971Z" fill="#E0E0E0"/>
<path d="M454.77 316.301L453.48 330.491L441.24 337.481L429.44 332.711L430.55 329.361L438.42 331.741L445.89 326.441L446.05 319.221L443.02 314.051L436.81 310.461L428.2 315.371L426.29 321.891L423.11 321.571L424.9 310.731L437.94 303.281L450.03 308.011" fill="#263238"/>
<path d="M629.62 240.561C629.67 240.491 629.74 240.431 629.81 240.381L630.4 239.901L630.85 239.561L631.43 239.211L632.12 238.801L632.94 238.441C636.33 237.091 640.09 237.031 643.53 238.251C645.91 239.021 648.09 240.311 649.92 242.031C651.99 244.041 653.53 246.521 654.42 249.271C656.37 255.031 655.87 262.081 653.05 268.441C650.23 274.801 645.75 279.901 641.53 284.131C637.31 288.361 633.17 291.871 629.91 295.021C627.3 297.461 624.85 300.061 622.57 302.801C621.77 303.781 621.18 304.561 620.78 305.101L620.32 305.701C620.22 305.831 620.16 305.901 620.15 305.891C620.18 305.811 620.23 305.741 620.28 305.671C620.38 305.501 620.52 305.291 620.7 305.041C621.06 304.481 621.63 303.671 622.42 302.681C624.65 299.871 627.07 297.231 629.67 294.761C632.9 291.581 636.98 288.051 641.21 283.811C645.44 279.571 649.79 274.521 652.61 268.241C655.42 261.961 655.86 255.041 654 249.411C653.14 246.731 651.65 244.301 649.65 242.311C647.87 240.631 645.74 239.361 643.42 238.591C640.07 237.341 636.37 237.341 633.02 238.591C631.82 239.111 630.68 239.771 629.64 240.551L629.62 240.561Z" fill="#263238"/>
<path d="M552.8 393.281V363.721C552.8 353.241 559.81 346.141 568.59 346.031L658.75 344.911C664.74 344.841 669.66 349.641 669.73 355.631C669.73 355.671 669.73 355.711 669.73 355.751V392.751L552.8 393.291V393.281Z" fill="#496281"/>
<path d="M658.63 354.091H622.1V371.161H658.63V354.091Z" fill="#FAFAFA"/>
<path d="M610.65 392.561C610.52 392.561 610.41 382.101 610.41 369.201C610.41 356.301 610.52 345.841 610.65 345.841C610.78 345.841 610.89 356.301 610.89 369.201C610.89 382.101 610.78 392.561 610.65 392.561Z" fill="#263238"/>
<path d="M611.02 331.681C611.3 331.481 611.61 331.331 611.95 331.251C612.79 330.931 613.68 330.741 614.58 330.661C620.61 330.051 625.99 334.431 626.6 340.461C626.62 340.701 626.64 340.951 626.65 341.191C626.7 342.091 626.63 342.991 626.44 343.871C626.39 344.191 626.28 344.511 626.13 344.801C626.31 343.611 626.37 342.411 626.31 341.211C625.93 335.181 620.74 330.611 614.71 330.991C614.67 330.991 614.63 330.991 614.59 330.991C613.38 331.091 612.18 331.321 611.01 331.671L611.02 331.681Z" fill="#263238"/>
<path d="M566.27 346.241L610.65 226.821L642.73 242.051L605.09 354.091L566.27 346.241Z" fill="#496281"/>
<path d="M561.84 357.751C566.05 348.551 576.93 344.501 586.13 348.711C595.33 352.921 599.38 363.801 595.17 373.001C590.96 382.201 580.08 386.251 570.88 382.041C561.68 377.831 557.63 366.951 561.84 357.751Z" fill="#263238"/>
<path d="M585.183 367.086C586.161 363.363 583.936 359.551 580.213 358.573C576.49 357.595 572.678 359.82 571.7 363.544C570.722 367.267 572.947 371.078 576.67 372.056C580.394 373.034 584.205 370.809 585.183 367.086Z" fill="#455A64"/>
<path d="M585.26 350.071C585.32 349.821 585.39 349.581 585.48 349.341C585.67 348.821 585.91 348.111 586.21 347.241C586.88 345.381 587.82 342.781 589 339.581C591.4 333.081 594.67 324.181 598.29 314.351L604.9 296.651L605.03 296.931L591.94 292.291L588.28 290.941L587.35 290.581C587.24 290.551 587.13 290.501 587.03 290.431C587.15 290.451 587.26 290.471 587.37 290.511L588.3 290.821L592.01 292.041L605.15 296.501L605.34 296.571L605.27 296.771C603.41 301.931 601.12 308.021 598.77 314.491L589.32 339.681L586.41 347.291L585.59 349.351C585.5 349.611 585.38 349.861 585.23 350.091L585.26 350.071Z" fill="#263238"/>
<path d="M626.47 291.951C626.47 292.081 618.58 289.081 608.94 285.261C599.3 281.441 591.54 278.251 591.58 278.121C591.63 277.991 599.48 280.991 609.12 284.821C618.75 288.651 626.53 291.861 626.48 291.951H626.47Z" fill="#263238"/>
<path d="M587.65 383.011C587.65 383.011 588.1 382.591 588.92 381.861C590.08 380.821 591.18 379.721 592.22 378.561C595.59 374.701 598.37 370.361 600.48 365.681C602.57 360.991 604.34 356.161 605.78 351.231L607.15 346.761C607.31 346.281 607.43 345.881 607.54 345.541C607.65 345.211 607.69 345.121 607.71 345.131C607.71 345.281 607.68 345.431 607.64 345.571C607.56 345.901 607.45 346.311 607.34 346.811C607.06 347.881 606.65 349.431 606.11 351.331C604.76 356.311 603.02 361.171 600.92 365.871C598.81 370.601 595.96 374.961 592.48 378.791C591.42 379.941 590.27 381.011 589.05 381.991C588.73 382.261 588.39 382.521 588.04 382.761C587.8 382.941 587.67 383.021 587.66 383.001L587.65 383.011Z" fill="#263238"/>
<path d="M564.33 373.051C564.33 373.051 564.22 373.051 564.01 372.981C563.71 372.891 563.43 372.751 563.16 372.581C562.19 371.931 561.45 371.001 561.03 369.911C560.46 368.301 560.29 366.571 560.56 364.881C560.8 362.841 561.15 360.811 561.6 358.811C562.4 355.161 563.51 351.591 564.93 348.141C565.47 346.811 565.96 345.761 566.3 345.051C566.46 344.671 566.67 344.301 566.9 343.961C566.8 344.361 566.65 344.751 566.47 345.121C566.17 345.861 565.73 346.921 565.23 348.261C563.92 351.731 562.87 355.291 562.06 358.911C561.21 363.131 560.29 367.131 561.34 369.791C561.71 370.831 562.38 371.741 563.25 372.421C563.87 372.881 564.33 373.001 564.31 373.041L564.33 373.051Z" fill="#263238"/>
<path d="M563.711 432.07C571.932 428.624 575.803 419.167 572.357 410.946C568.912 402.725 559.454 398.854 551.233 402.299C543.012 405.745 539.141 415.203 542.587 423.424C546.032 431.645 555.49 435.516 563.711 432.07Z" fill="#455A64"/>
<path d="M557.46 422.781C560.52 422.781 563 420.301 563 417.241C563 414.181 560.52 411.701 557.46 411.701C554.4 411.701 551.92 414.181 551.92 417.241C551.92 420.301 554.4 422.781 557.46 422.781Z" fill="#263238"/>
<path d="M626.377 420.744C628.065 411.992 622.339 403.527 613.586 401.839C604.834 400.15 596.37 405.877 594.681 414.629C592.992 423.382 598.719 431.846 607.471 433.534C616.224 435.223 624.688 429.497 626.377 420.744Z" fill="#455A64"/>
<path d="M610.5 412.131C613.56 412.131 616.04 414.611 616.04 417.671C616.04 420.731 613.56 423.211 610.5 423.211C607.44 423.211 604.96 420.731 604.96 417.671C604.96 414.611 607.44 412.131 610.5 412.131Z" fill="#263238"/>
<path d="M663.95 433.811C672.864 433.811 680.09 426.585 680.09 417.671C680.09 408.757 672.864 401.531 663.95 401.531C655.036 401.531 647.81 408.757 647.81 417.671C647.81 426.585 655.036 433.811 663.95 433.811Z" fill="#455A64"/>
<path d="M663.95 423.211C667.01 423.211 669.49 420.731 669.49 417.671C669.49 414.611 667.01 412.131 663.95 412.131C660.89 412.131 658.41 414.611 658.41 417.671C658.41 420.731 660.89 423.211 663.95 423.211Z" fill="#263238"/>
<path d="M664.53 441.741H557.1C543.57 441.741 532.6 430.771 532.6 417.241C532.6 403.711 543.57 392.741 557.1 392.741H664.53C678.06 392.741 689.03 403.711 689.03 417.241C689.03 430.771 678.06 441.741 664.53 441.741ZM557.1 400.771C548.01 400.771 540.63 408.131 540.62 417.231C540.62 426.321 547.98 433.701 557.08 433.711H664.53C673.62 433.711 681 426.351 681.01 417.251C681.01 408.161 673.65 400.781 664.55 400.771H557.1Z" fill="#263238"/>
<path d="M610.5 400.751C610.3 398.131 610.3 395.511 610.5 392.891C610.69 395.511 610.69 398.131 610.5 400.751Z" fill="#455A64"/>
<path d="M630.64 400.751C630.44 398.131 630.44 395.511 630.64 392.891C630.84 395.511 630.84 398.131 630.64 400.751Z" fill="#455A64"/>
<path d="M650.77 400.751C650.57 398.131 650.57 395.511 650.77 392.891C650.97 395.511 650.97 398.131 650.77 400.751Z" fill="#455A64"/>
<path d="M669.49 401.521C669.72 400.231 670.06 398.951 670.48 397.711C670.81 396.441 671.24 395.201 671.76 393.991C671.52 395.281 671.18 396.551 670.76 397.791C670.42 399.061 670 400.301 669.49 401.511V401.521Z" fill="#455A64"/>
<path d="M680.09 411.611C682.33 410.241 684.67 409.051 687.08 408.031C685.99 408.751 684.84 409.391 683.65 409.941C682.51 410.581 681.31 411.141 680.08 411.601L680.09 411.611Z" fill="#455A64"/>
<path d="M609.51 434.061C609.71 436.681 609.71 439.301 609.51 441.921C609.31 439.301 609.31 436.681 609.51 434.061Z" fill="#455A64"/>
<path d="M629.64 433.811C629.84 436.431 629.84 439.051 629.64 441.671C629.45 439.051 629.45 436.431 629.64 433.811Z" fill="#455A64"/>
<path d="M649.78 433.811C649.98 436.431 649.98 439.051 649.78 441.671C649.59 439.051 649.59 436.431 649.78 433.811Z" fill="#455A64"/>
<path d="M668.49 433.291C669.01 434.501 669.43 435.741 669.77 437.011C670.19 438.251 670.53 439.531 670.77 440.821C670.25 439.621 669.82 438.371 669.49 437.101C669.06 435.861 668.73 434.581 668.49 433.291Z" fill="#455A64"/>
<path d="M679.66 424.021C680.89 424.491 682.08 425.051 683.23 425.681C684.42 426.231 685.56 426.871 686.66 427.591C684.24 426.581 681.9 425.381 679.67 424.011L679.66 424.021Z" fill="#455A64"/>
<path d="M591.27 434.061C591.47 436.681 591.47 439.301 591.27 441.921C591.08 439.301 591.08 436.681 591.27 434.061Z" fill="#455A64"/>
<path d="M571.13 434.061C571.33 436.681 571.33 439.301 571.13 441.921C570.94 439.301 570.94 436.681 571.13 434.061Z" fill="#455A64"/>
<path d="M552.42 433.291C552.18 434.581 551.84 435.851 551.42 437.091C551.08 438.361 550.65 439.601 550.14 440.811C550.71 438.251 551.48 435.731 552.42 433.291Z" fill="#455A64"/>
<path d="M541.81 423.201C540.72 423.921 539.57 424.561 538.38 425.111C537.23 425.751 536.04 426.301 534.81 426.771C535.91 426.041 537.05 425.401 538.25 424.851C539.39 424.211 540.58 423.661 541.81 423.201Z" fill="#455A64"/>
<path d="M592.26 401.001C592.07 398.381 592.07 395.761 592.26 393.141C592.46 395.761 592.46 398.381 592.26 401.001Z" fill="#455A64"/>
<path d="M572.12 401.001C571.92 398.381 571.92 395.761 572.12 393.141C572.32 395.761 572.32 398.381 572.12 401.001Z" fill="#455A64"/>
<path d="M553.42 401.521C552.9 400.321 552.47 399.071 552.14 397.801C551.71 396.561 551.38 395.291 551.14 394.001C551.66 395.201 552.09 396.451 552.42 397.721C552.85 398.961 553.18 400.231 553.42 401.521Z" fill="#455A64"/>
<path d="M542.25 410.781C541.02 410.321 539.83 409.771 538.68 409.131C537.49 408.571 536.34 407.931 535.24 407.211C536.47 407.671 537.66 408.231 538.81 408.881C540 409.431 541.15 410.061 542.25 410.781Z" fill="#455A64"/>
<path d="M511.66 277.141L571.9 252.901L575.34 265.861L517.79 290.901L511.66 277.141Z" fill="#455A64"/>
<path d="M619.97 257.261L577.49 274.111L567.54 247.421L615.65 227.291L619.97 257.261Z" fill="#496281"/>
<path d="M635.16 237.911L661.71 226.841L657.34 215.871L631.56 226.281L635.16 237.911Z" fill="#455A64"/>
<path d="M634.59 227.931C641.05 234.911 640.64 245.801 633.66 252.261C626.68 258.721 615.79 258.311 609.33 251.331C602.87 244.351 603.28 233.461 610.26 227.001C617.24 220.541 628.13 220.951 634.59 227.931Z" fill="#263238"/>
<path d="M626.75 235.201C629.15 237.871 628.94 241.981 626.27 244.381C623.6 246.781 619.49 246.571 617.09 243.901C614.72 241.271 614.89 237.241 617.46 234.821C620.07 232.361 624.19 232.481 626.65 235.101C626.68 235.131 626.72 235.171 626.75 235.211V235.201Z" fill="#455A64"/>
<path d="M573.51 244.521C573.76 244.701 573.99 244.901 574.2 245.131C574.67 245.611 575.29 246.211 576.02 246.931L582.26 253.271L582.01 253.221L587.74 251.041C592.59 249.211 596.98 247.571 600.17 246.421L603.96 245.071C604.42 244.891 604.89 244.751 605.37 244.641C604.94 244.881 604.5 245.081 604.03 245.241L600.3 246.731C597.14 247.961 592.77 249.641 587.92 251.461L582.17 253.621L582.02 253.671L581.92 253.571L575.8 247.121C575.09 246.361 574.52 245.721 574.06 245.231C573.84 245.021 573.65 244.781 573.49 244.531L573.51 244.521Z" fill="#263238"/>
<path d="M467.33 288.411L509.87 270.361L521.98 295.441L477.89 314.451L467.33 288.411Z" fill="#496281"/>
<path d="M474.35 316.559C482.364 315.23 487.783 307.655 486.454 299.64C485.124 291.626 477.549 286.206 469.535 287.536C461.52 288.866 456.101 296.441 457.43 304.455C458.76 312.47 466.335 317.889 474.35 316.559Z" fill="#263238"/>
<path d="M469.75 296.891C472.59 295.701 475.85 297.041 477.04 299.881C478.23 302.721 476.89 305.981 474.05 307.171C471.23 308.351 467.97 307.031 466.77 304.221C465.56 301.391 466.88 298.121 469.71 296.911H469.75V296.891Z" fill="#455A64"/>
<path d="M494.39 307.341C494.28 307.001 494.2 306.651 494.17 306.291L493.7 303.341C493.32 300.741 492.77 297.211 492.22 293.121V292.941L492.39 292.871L497.62 290.741C502.74 288.661 507.38 286.811 510.75 285.491L514.75 283.951C515.23 283.741 515.73 283.571 516.24 283.451C515.79 283.711 515.31 283.941 514.82 284.131L510.88 285.811C507.54 287.201 502.92 289.111 497.8 291.191L492.56 293.301L492.7 293.061C493.22 297.131 493.68 300.661 494.01 303.281C494.15 304.491 494.26 305.481 494.34 306.251C494.39 306.611 494.41 306.971 494.39 307.341Z" fill="#263238"/>
<path d="M46.21 206.011C46.12 206.061 46.02 206.111 45.91 206.131L45.03 206.431C44.26 206.691 43.12 207.111 41.72 207.751C37.73 209.541 34.17 212.171 31.28 215.461C29.31 217.721 27.79 220.341 26.81 223.171C25.74 226.451 25.51 229.951 26.15 233.341C26.82 237.101 28.58 240.581 31.22 243.341C32.64 244.741 34.3 245.861 36.14 246.651C38.03 247.471 40.05 247.961 42.11 248.101C46.21 248.231 50.3 247.571 54.16 246.161C57.92 244.891 61.4 243.201 64.77 241.751C67.94 240.291 71.24 239.101 74.62 238.221C77.58 237.441 80.67 237.241 83.71 237.641C88.17 238.111 92.27 240.311 95.12 243.781C95.53 244.341 95.9 244.921 96.22 245.531C96.45 246.091 96.68 246.541 96.8 246.941C96.92 247.341 96.99 247.601 97.04 247.831C97.08 247.931 97.1 248.041 97.11 248.151L96.99 247.851L96.69 246.971C96.55 246.601 96.3 246.141 96.06 245.601C95.74 245.001 95.37 244.441 94.96 243.901C92.09 240.561 88.05 238.461 83.67 238.031C80.68 237.671 77.65 237.891 74.74 238.681C71.39 239.581 68.13 240.771 64.99 242.231C61.68 243.701 58.16 245.401 54.34 246.701C50.42 248.141 46.26 248.811 42.08 248.671C39.95 248.541 37.86 248.051 35.9 247.231C34 246.401 32.27 245.221 30.82 243.741C28.11 240.911 26.3 237.331 25.63 233.461C24.99 229.981 25.24 226.391 26.37 223.031C27.38 220.141 28.95 217.471 30.98 215.171C33.92 211.841 37.56 209.201 41.64 207.461C43.11 206.831 44.64 206.341 46.2 205.991L46.21 206.011Z" fill="#263238"/>
<path d="M187.37 377.881V336.511C187.37 324.911 178.03 315.471 166.43 315.341L46.69 313.841C38.74 313.741 32.21 320.111 32.11 328.071C32.11 328.131 32.11 328.191 32.11 328.251V377.391L187.37 377.891V377.881Z" fill="#496281"/>
<path d="M95.3 326.051H46.79V348.731H95.3V326.051Z" fill="#FAFAFA"/>
<path d="M110.53 377.151C110.36 377.151 110.24 363.251 110.24 346.131C110.24 329.011 110.36 315.101 110.53 315.101C110.7 315.101 110.82 328.991 110.82 346.131C110.82 363.271 110.69 377.151 110.53 377.151Z" fill="#263238"/>
<path d="M110.02 296.281C108.49 295.811 106.92 295.501 105.33 295.371C97.31 294.781 90.33 300.811 89.75 308.821C89.75 308.871 89.75 308.921 89.74 308.971C89.65 310.571 89.74 312.171 90.02 313.741C89.82 313.351 89.69 312.931 89.62 312.491C89.36 311.321 89.27 310.121 89.34 308.931C89.71 300.811 96.6 294.541 104.72 294.911C104.94 294.911 105.15 294.931 105.37 294.951C106.56 295.051 107.73 295.311 108.85 295.721C109.27 295.851 109.66 296.031 110.03 296.271L110.02 296.281Z" fill="#263238"/>
<path d="M169.47 315.621L110.53 157.011L67.91 177.231L117.91 326.051L169.47 315.621Z" fill="#496281"/>
<path opacity="0.4" d="M172.48 367.399C181.926 358.37 182.263 343.393 173.234 333.947C164.204 324.502 149.227 324.164 139.782 333.194C130.336 342.223 129.999 357.2 139.028 366.646C148.058 376.091 163.035 376.428 172.48 367.399Z" fill="black"/>
<path d="M162.426 363.564C174.866 358.482 180.83 344.279 175.749 331.84C170.667 319.401 156.464 313.436 144.025 318.517C131.586 323.599 125.621 337.802 130.702 350.241C135.784 362.68 149.987 368.645 162.426 363.564Z" fill="#263238"/>
<path d="M144.76 344.791C146.82 349.471 152.28 351.591 156.96 349.531C161.64 347.471 163.76 342.011 161.7 337.331C159.64 332.651 154.18 330.531 149.5 332.591C144.82 334.651 142.7 340.111 144.76 344.791Z" fill="#455A64"/>
<path d="M144.26 320.721C144.21 320.651 144.17 320.571 144.14 320.491L143.85 319.781L142.75 317.041C141.82 314.601 140.55 311.151 138.89 306.921C135.67 298.311 131.25 286.511 126.36 273.471L117.73 249.931L117.64 249.691L117.88 249.611L135.27 243.701L140.17 242.071L141.47 241.661L141.97 241.491C141.97 241.491 141.83 241.571 141.54 241.691L140.27 242.161L135.41 243.921L118.03 250.041L118.17 249.721C120.74 256.571 123.75 264.631 126.99 273.241C131.82 286.301 136.18 298.121 139.36 306.741C140.91 311.011 142.16 314.451 143.05 316.921C143.46 318.091 143.79 319.011 144.03 319.701L144.26 320.431C144.27 320.521 144.26 320.621 144.25 320.711L144.26 320.721Z" fill="#263238"/>
<path d="M89.5 243.521C89.5 243.371 99.77 239.111 112.57 234.061C125.36 229.011 135.79 225.001 135.86 225.141C135.93 225.281 125.59 229.551 112.78 234.601C99.97 239.651 89.57 243.701 89.5 243.521Z" fill="#263238"/>
<path d="M141.06 364.471C140.88 364.391 140.71 364.281 140.56 364.151C140.25 363.921 139.78 363.591 139.22 363.111C137.61 361.801 136.09 360.371 134.68 358.851C130.07 353.761 126.28 347.971 123.47 341.701C120.7 335.451 118.41 328.991 116.63 322.381C115.91 319.861 115.36 317.801 115 316.381L114.59 314.741C114.54 314.551 114.5 314.351 114.49 314.161C114.58 314.331 114.65 314.521 114.7 314.711C114.84 315.141 115.01 315.671 115.22 316.321L117.02 322.261C118.93 328.811 121.28 335.221 124.06 341.461C126.86 347.681 130.58 353.451 135.08 358.581C136.46 360.131 137.93 361.611 139.49 362.991C140.04 363.461 140.57 363.961 141.07 364.481L141.06 364.471Z" fill="#263238"/>
<path d="M172.04 351.231C172.53 350.991 173 350.711 173.45 350.411C174.62 349.521 175.51 348.301 176.01 346.911C176.68 344.821 176.85 342.601 176.48 340.441C176.17 337.971 175.68 335.261 175.06 332.451C174 327.641 172.59 322.911 170.84 318.301C170.18 316.531 169.59 315.121 169.2 314.131C168.96 313.631 168.77 313.121 168.62 312.591C168.92 313.051 169.18 313.531 169.4 314.031C169.86 314.991 170.5 316.391 171.23 318.141C173.1 322.731 174.57 327.471 175.64 332.311C176.26 335.151 176.74 337.821 177.03 340.381C177.37 342.621 177.16 344.921 176.4 347.061C175.85 348.501 174.87 349.741 173.59 350.601C173.24 350.821 172.87 351.001 172.49 351.141C172.35 351.191 172.2 351.221 172.05 351.231H172.04Z" fill="#263238"/>
<path d="M181.17 431.381C193.017 431.381 202.62 421.778 202.62 409.931C202.62 398.085 193.017 388.481 181.17 388.481C169.324 388.481 159.72 398.085 159.72 409.931C159.72 421.778 169.324 431.381 181.17 431.381Z" fill="#455A64"/>
<path d="M181.17 417.281C185.229 417.281 188.52 413.99 188.52 409.931C188.52 405.872 185.229 402.581 181.17 402.581C177.111 402.581 173.82 405.872 173.82 409.931C173.82 413.99 177.111 417.281 181.17 417.281Z" fill="#263238"/>
<path d="M110.72 431.941C122.567 431.941 132.17 422.338 132.17 410.491C132.17 398.645 122.567 389.041 110.72 389.041C98.8735 389.041 89.27 398.645 89.27 410.491C89.27 422.338 98.8735 431.941 110.72 431.941Z" fill="#455A64"/>
<path d="M110.72 417.841C114.779 417.841 118.07 414.55 118.07 410.491C118.07 406.432 114.779 403.141 110.72 403.141C106.661 403.141 103.37 406.432 103.37 410.491C103.37 414.55 106.661 417.841 110.72 417.841Z" fill="#263238"/>
<path d="M59.5483 418.705C64.0817 407.76 58.8844 395.213 47.9396 390.679C36.9949 386.146 24.4473 391.343 19.9139 402.288C15.3804 413.233 20.5777 425.78 31.5225 430.314C42.4672 434.847 55.0148 429.65 59.5483 418.705Z" fill="#455A64"/>
<path d="M47.0629 411.057C47.351 407.008 44.3021 403.492 40.2531 403.204C36.204 402.916 32.688 405.965 32.3999 410.014C32.1118 414.063 35.1607 417.579 39.2097 417.867C43.2588 418.155 46.7748 415.106 47.0629 411.057Z" fill="#263238"/>
<path d="M6.43 409.931C6.45 391.971 21 377.411 38.96 377.391H181.65C199.62 377.391 214.19 391.971 214.18 409.951C214.18 427.911 199.61 442.481 181.65 442.481H38.96C21 442.451 6.45 427.901 6.43 409.941V409.931ZM38.96 388.081C26.88 388.081 17.08 397.871 17.08 409.961C17.08 422.051 26.87 431.841 38.96 431.841H181.65C193.73 431.841 203.53 422.051 203.53 409.961C203.53 397.871 193.74 388.081 181.65 388.081H38.96Z" fill="#263238"/>
<path d="M110.73 388.081C110.49 384.611 110.49 381.121 110.73 377.641C110.97 381.111 110.97 384.601 110.73 388.081Z" fill="#455A64"/>
<path d="M83.98 388.081C83.74 384.611 83.74 381.121 83.98 377.641C84.22 381.111 84.22 384.601 83.98 388.081Z" fill="#455A64"/>
<path d="M57.23 388.081C56.99 384.611 56.99 381.121 57.23 377.641C57.47 381.111 57.47 384.601 57.23 388.081Z" fill="#455A64"/>
<path d="M32.38 389.051C31.7 387.441 31.13 385.791 30.67 384.111C30.11 382.461 29.66 380.771 29.31 379.061C29.98 380.671 30.55 382.321 31 384.011C31.58 385.651 32.04 387.341 32.38 389.051Z" fill="#455A64"/>
<path d="M18.28 402.401C16.66 401.771 15.08 401.041 13.56 400.201C11.98 399.461 10.45 398.611 8.99 397.671C10.61 398.311 12.19 399.041 13.72 399.871C15.29 400.621 16.82 401.461 18.28 402.401Z" fill="#455A64"/>
<path d="M112.05 432.271C112.27 435.751 112.27 439.231 112.05 442.711C111.81 439.241 111.81 435.751 112.05 432.271Z" fill="#455A64"/>
<path d="M85.3 431.941C85.52 435.421 85.52 438.901 85.3 442.381C85.06 438.911 85.06 435.421 85.3 431.941Z" fill="#455A64"/>
<path d="M58.55 431.941C58.77 435.421 58.77 438.901 58.55 442.381C58.31 438.911 58.31 435.421 58.55 431.941Z" fill="#455A64"/>
<path d="M33.7 431.241C33.36 432.951 32.91 434.641 32.34 436.291C31.89 437.971 31.33 439.621 30.66 441.231C31.44 437.841 32.46 434.501 33.69 431.251L33.7 431.241Z" fill="#455A64"/>
<path d="M18.87 418.931C17.41 419.881 15.88 420.721 14.31 421.461C12.79 422.301 11.21 423.041 9.58 423.661C11.05 422.721 12.57 421.871 14.14 421.131C15.67 420.301 17.25 419.561 18.87 418.931Z" fill="#455A64"/>
<path d="M136.26 432.271C136.5 435.741 136.5 439.231 136.26 442.711C136.04 439.231 136.04 435.751 136.26 432.271Z" fill="#455A64"/>
<path d="M163.01 432.271C163.25 435.741 163.25 439.231 163.01 442.711C162.79 439.231 162.79 435.751 163.01 432.271Z" fill="#455A64"/>
<path d="M187.86 431.241C189.09 434.501 190.11 437.831 190.89 441.221C189.67 437.961 188.65 434.631 187.86 431.241Z" fill="#455A64"/>
<path d="M201.95 417.831C205.15 419.211 208.26 420.801 211.25 422.581C208.05 421.211 204.94 419.621 201.95 417.831Z" fill="#455A64"/>
<path d="M134.95 388.361C134.71 384.881 134.71 381.391 134.95 377.911C135.19 381.391 135.19 384.881 134.95 388.361Z" fill="#455A64"/>
<path d="M161.7 388.361C161.46 384.881 161.46 381.391 161.7 377.911C161.94 381.391 161.94 384.881 161.7 388.361Z" fill="#455A64"/>
<path d="M186.55 389.051C186.89 387.341 187.34 385.661 187.89 384.011C188.34 382.321 188.9 380.671 189.58 379.061C189.25 380.771 188.81 382.451 188.27 384.111C187.8 385.791 187.23 387.441 186.55 389.051Z" fill="#455A64"/>
<path d="M201.37 401.361C204.37 399.581 207.47 397.991 210.67 396.611C207.67 398.391 204.57 399.981 201.37 401.361Z" fill="#455A64"/>
<path d="M136.47 122.751C136.47 122.751 136.56 122.611 136.76 122.341L137.63 121.171C138.41 120.161 139.56 118.661 141 116.701C143.89 112.781 148.01 107.071 152.65 99.7111C158.11 91.1111 163.07 82.2011 167.51 73.0311C170.02 67.8611 172.49 62.3511 174.87 56.5711C177.25 50.7811 179.71 44.7711 182.58 38.7511C185.27 32.8411 188.51 27.2111 192.26 21.9111C195.76 17.0011 199.94 12.6111 204.67 8.86114C208.99 5.47114 213.92 2.92114 219.18 1.35114C223.79 0.0111444 228.62 -0.338856 233.37 0.331144C237.28 0.871144 241.06 2.11115 244.53 3.98115C247.14 5.40115 249.52 7.22115 251.57 9.37115C252.84 10.7611 253.95 12.2911 254.88 13.9311L255.54 15.2311C255.68 15.5311 255.74 15.6811 255.74 15.6811L255.49 15.2511L254.77 13.9811C253.83 12.4011 252.72 10.9211 251.46 9.57114C249.4 7.46114 247.03 5.69114 244.43 4.31114C240.99 2.49114 237.26 1.30114 233.41 0.781143C228.72 0.151143 223.95 0.531143 219.41 1.88114C214.21 3.46114 209.35 6.00114 205.08 9.35114C200.36 13.0211 196.17 17.3411 192.66 22.1811C188.94 27.4511 185.73 33.0611 183.05 38.9311C180.23 44.9311 177.8 50.9411 175.34 56.7211C172.87 62.4911 170.47 68.0411 167.95 73.2511C163.48 82.4211 158.49 91.3312 153 99.9212C148.32 107.261 144.18 112.951 141.19 116.831C139.72 118.771 138.55 120.261 137.74 121.241L136.81 122.341C136.55 122.631 136.47 122.751 136.47 122.751Z" fill="#263238"/>
<path d="M213.22 59.4911L142.26 117.701L155.99 130.751L226.11 76.4311L213.22 59.4911Z" fill="#E0E0E0"/>
<path d="M115.02 180.231L164.75 139.021L138.44 108.561L80.81 154.501L115.02 180.231Z" fill="#496281"/>
<path d="M80.72 185.901L48.98 211.291L38.33 198.421L68.74 173.551L80.72 185.901Z" fill="#E0E0E0"/>
<path d="M288.352 34.6819L274.386 44.1448L285.666 60.7931L299.632 51.3303L288.352 34.6819Z" fill="#E0E0E0"/>
<path d="M298.34 49.4211L323.5 49.7711L337.46 70.3811L330.66 91.8011L324.6 90.3011L327.74 76.1211L317.4 63.6911L304.65 64.3911L295.95 70.4211L290.47 81.8311L300.3 96.3411L312.03 98.8211L311.9 104.461L292.57 102.771L277.69 80.8111L284.37 58.8911" fill="#263238"/>
<path opacity="0.4" d="M116.236 187.808C120.478 175.448 113.897 161.99 101.537 157.749C89.1774 153.508 75.7197 160.089 71.4784 172.449C67.2371 184.808 73.8183 198.266 86.1779 202.507C98.5375 206.748 111.995 200.167 116.236 187.808Z" fill="black"/>
<path d="M96.5408 194.531C109.721 191.917 118.286 179.113 115.672 165.932C113.057 152.752 100.253 144.187 87.0727 146.801C73.8924 149.416 65.3272 162.22 67.9417 175.4C70.5563 188.581 83.3605 197.146 96.5408 194.531Z" fill="#263238"/>
<path d="M83.03 173.621C84.66 178.471 89.91 181.071 94.75 179.451C99.6 177.821 102.2 172.571 100.58 167.731C98.95 162.891 93.71 160.281 88.86 161.901C84.02 163.521 81.4 168.761 83.02 173.601V173.631L83.03 173.621Z" fill="#455A64"/>
<path d="M131.06 114.451C131.24 114.801 131.4 115.171 131.52 115.551L132.68 118.741L136.55 129.931L136.62 130.111L136.48 130.221L128.91 136.531C123.31 141.171 118.23 145.351 114.58 148.361L110.17 151.891L108.96 152.831C108.83 152.951 108.68 153.051 108.52 153.131C108.52 153.131 108.63 152.981 108.89 152.741L109.99 151.721L114.28 148.051C117.91 144.981 122.94 140.741 128.53 136.101L136.13 129.821L136.04 130.111C134.56 125.591 133.3 121.711 132.37 118.861C131.96 117.541 131.62 116.461 131.36 115.631C131.22 115.261 131.12 114.871 131.06 114.471V114.451Z" fill="#263238"/>
<path d="M257.29 12.2111L206.03 52.6611L228.89 84.7111L282.39 42.9911L257.29 12.2111Z" fill="#496281"/>
<path opacity="0.4" d="M277.186 47.3675C285.446 40.5173 286.589 28.2681 279.738 20.0082C272.888 11.7483 260.639 10.6055 252.379 17.4557C244.119 24.3059 242.976 36.5551 249.827 44.815C256.677 53.075 268.926 54.2178 277.186 47.3675Z" fill="black"/>
<path d="M258.16 10.8611C249.16 17.9911 247.65 31.0611 254.77 40.0611C261.9 49.0611 274.97 50.5711 283.97 43.4511C292.97 36.3211 294.48 23.2611 287.36 14.2611C280.23 5.26114 267.16 3.74115 258.16 10.8711V10.8611Z" fill="#263238"/>
<path d="M266.16 20.9711C262.74 23.6811 262.16 28.6511 264.87 32.0711C267.58 35.4911 272.55 36.0711 275.97 33.3611C279.39 30.6511 279.97 25.6811 277.26 22.2611C274.56 18.8411 269.6 18.2611 266.18 20.9611H266.17L266.16 20.9711Z" fill="#455A64"/>
<path d="M262.38 58.5611C261.93 58.3211 261.5 58.0511 261.1 57.7311L257.69 55.3211L245.9 46.7611H246.24L240.07 51.8111C234.02 56.7511 228.53 61.1911 224.53 64.3811L219.78 68.1411L218.47 69.1311C218.32 69.2511 218.17 69.3611 218 69.4511C218 69.4511 218.12 69.3011 218.41 69.0411L219.64 67.9411L224.28 64.0411C228.2 60.7311 233.66 56.3311 239.71 51.3411L245.89 46.3011L246.07 46.1711L246.24 46.2911L257.88 55.0311L261.19 57.6011C261.62 57.8911 262.02 58.2111 262.39 58.5611H262.38Z" fill="#263238"/>
<path d="M330.12 123.921C334.13 123.921 337.38 120.671 337.38 116.661C337.38 112.652 334.13 109.401 330.12 109.401C326.11 109.401 322.86 112.652 322.86 116.661C322.86 120.671 326.11 123.921 330.12 123.921Z" fill="#263238"/>
<path d="M363.09 123.921C367.1 123.921 370.35 120.671 370.35 116.661C370.35 112.652 367.1 109.401 363.09 109.401C359.08 109.401 355.83 112.652 355.83 116.661C355.83 120.671 359.08 123.921 363.09 123.921Z" fill="#263238"/>
<path d="M302.05 218.061L298.41 226.861C298.41 226.861 276.56 226.141 255.77 206.581L263.68 193.321C263.68 193.321 285.61 197.221 302.05 218.061Z" fill="#496281"/>
<path d="M293.21 173.031C296.75 159.441 308.59 161.821 308.59 161.821L308.67 171.611L306.73 223.591H296.1C296.1 223.591 289.66 186.621 293.21 173.031Z" fill="#496281"/>
<path d="M293.54 222.281C293.54 226.081 296.62 229.151 300.41 229.151C304.2 229.151 307.28 226.071 307.28 222.281C307.28 218.491 304.2 215.411 300.41 215.411C296.62 215.411 293.54 218.491 293.54 222.281Z" fill="#263238"/>
<path d="M398.42 226.431L388.9 226.241C388.9 226.241 380.81 246.551 390.42 273.441L404.83 271.701C404.83 271.701 408.32 248.411 398.42 226.431Z" fill="#496281"/>
<path d="M405.65 274.171L390.66 275.661C389.85 275.741 389.13 275.151 389.05 274.341C388.97 273.531 389.56 272.811 390.37 272.731L405.36 271.241C406.17 271.161 406.89 271.751 406.97 272.561C407.05 273.371 406.46 274.091 405.65 274.171Z" fill="#263238"/>
<path d="M400.56 173.031C397.02 159.441 384.04 162.891 384.04 162.891L385.1 171.601L387.04 223.581H397.67C397.67 223.581 404.11 186.611 400.56 173.021V173.031Z" fill="#496281"/>
<path d="M321.65 230.721C321.65 230.721 325.21 259.721 345.39 260.611C368.76 261.611 369.88 230.721 369.88 230.721H321.65Z" fill="#263238"/>
<path d="M324.48 242.031C324.48 242.031 314.12 244.701 317.43 253.471L335.52 268.521C339.23 266.471 341.78 262.811 342.43 258.621L324.97 242.961" fill="#263238"/>
<path d="M357.2 133.001H335.91V152.681H357.2V133.001Z" fill="#263238"/>
<path d="M350.76 143.671C350.76 143.671 361.67 143.441 363.21 133.421C363.96 128.581 364.62 118.511 365.11 109.381C365.65 99.5711 358.8 89.5611 346.65 89.6111C335.44 88.8411 328.49 97.3511 327.98 107.881C327.98 107.881 328.81 129.161 330.69 134.031C332.57 138.901 338.44 144.351 348.17 143.701" fill="#496281"/>
<g opacity="0.3">
<path d="M364.34 120.521C364.34 121.061 363.81 127.851 363.34 131.841C362.92 135.371 361.85 138.261 359.11 140.531C356.92 142.451 354.16 143.601 351.26 143.821C347.73 144.131 344.17 144.231 340.82 143.101C337.47 141.971 333.98 139.691 332.29 136.591C332.29 136.591 347.29 144.591 357.4 137.821C357.4 137.821 361.1 136.071 362.4 128.381C363.65 121.011 364.34 120.521 364.34 120.521Z" fill="black"/>
</g>
<path d="M357.15 149.231C353.64 149.491 350.11 149.581 346.59 149.491C343.07 149.581 339.54 149.491 336.03 149.231C336.03 149.091 340.76 148.971 346.59 148.971C352.42 148.971 357.15 149.091 357.15 149.231Z" fill="#455A64"/>
<path d="M357.15 146.671C353.64 146.931 350.11 147.021 346.59 146.931C343.07 147.021 339.54 146.931 336.03 146.671C336.03 146.531 340.76 146.411 346.59 146.411C352.42 146.411 357.15 146.521 357.15 146.671Z" fill="#455A64"/>
<path d="M344.97 151.661C344.97 151.661 314.59 152.941 309.79 164.721C304.99 176.501 307.13 220.051 323.72 223.581C334.18 225.811 351.65 225.231 363.1 224.491C370.05 224.041 375.92 219.171 377.65 212.431C381.16 198.811 385.43 175.981 379.11 162.951C372.28 155.591 360.78 151.911 344.97 151.661Z" fill="#496281"/>
<g opacity="0.3">
<path d="M311.14 207.771C320.54 215.421 331.79 222.911 344.23 223.161C356.8 223.351 368.96 218.731 378.23 210.241C378.23 210.241 376.55 222.441 364.83 224.241C357.35 225.411 344.68 225.371 335.83 224.931C330.83 224.691 327.09 224.111 326.17 224.011C323.08 223.681 317.55 222.671 314.17 215.161C313.65 214.031 313.05 213.101 312.7 212.291C310.78 207.881 311.14 207.771 311.14 207.771Z" fill="black"/>
</g>
<path d="M367.98 242.061C367.98 242.061 378.34 244.731 375.03 253.501L356.94 268.581C353.23 266.531 350.68 262.871 350.03 258.681L367.49 243.021" fill="#263238"/>
<path d="M319.37 333.171L311.52 340.271C311.52 340.271 310.62 366.151 320.52 390.181C330.42 414.211 336.88 421.251 336.88 421.251L344.31 420.771L338.65 334.211L330.51 332.441L319.37 333.171Z" fill="#496281"/>
<path d="M317.43 253.521C313.19 253.521 309.59 256.661 309.04 260.871C307.27 274.541 305.24 303.861 317.43 319.261H330.09C330.09 319.261 335.52 309.001 335.52 303.581V268.521L317.43 253.521Z" fill="#496281"/>
<path d="M326.82 318.861H321.17C317.392 318.861 314.33 321.924 314.33 325.701V325.981C314.33 329.759 317.392 332.821 321.17 332.821H326.82C330.598 332.821 333.66 329.759 333.66 325.981V325.701C333.66 321.924 330.598 318.861 326.82 318.861Z" fill="#263238"/>
<path d="M322.38 332.761C322.38 332.761 322.16 332.761 321.83 332.621C321.37 332.361 320.99 331.981 320.72 331.531C320 330.001 319.65 328.331 319.72 326.641C319.69 324.971 319.95 323.301 320.48 321.721C320.65 321.051 320.94 320.411 321.35 319.851C320.67 322.051 320.3 324.331 320.24 326.631C320.19 328.241 320.48 329.851 321.08 331.351C321.38 331.931 321.83 332.421 322.38 332.761Z" fill="#455A64"/>
<path d="M347.27 427.901L332.1 427.311C332.1 427.311 320.89 436.841 321.11 440.571C321.33 444.301 347.65 442.021 347.65 442.021L347.27 427.901Z" fill="#496281"/>
<path d="M372.88 331.521L381.17 338.091C381.17 338.091 383.74 363.821 375.45 388.401C367.16 412.981 361.16 420.401 361.16 420.401H353.73V333.801L361.73 331.511H372.88V331.521Z" fill="#496281"/>
<path d="M374.56 252.891C378.79 252.891 382.38 256.021 382.93 260.221C384.7 273.841 386.74 303.061 374.56 318.391H361.95C361.95 318.391 356.54 308.171 356.54 302.771V267.911L374.56 252.891Z" fill="#496281"/>
<path d="M371.18 317.451H365.29C361.49 317.451 358.41 320.531 358.41 324.331V324.611C358.41 328.411 361.49 331.491 365.29 331.491H371.18C374.98 331.491 378.06 328.411 378.06 324.611V324.331C378.06 320.531 374.98 317.451 371.18 317.451Z" fill="#263238"/>
<path d="M369.51 331.481C370.08 331.151 370.54 330.681 370.85 330.111C371.45 328.661 371.73 327.101 371.69 325.531C371.63 323.291 371.25 321.071 370.57 318.931C370.98 319.481 371.28 320.091 371.45 320.751C371.97 322.291 372.23 323.911 372.21 325.531C372.28 327.171 371.93 328.801 371.21 330.281C370.95 330.721 370.56 331.091 370.1 331.341C369.73 331.501 369.52 331.511 369.51 331.481Z" fill="#455A64"/>
<path d="M348.99 426.641L363.2 426.051C363.2 426.051 374.41 436.361 374.19 440.391C373.96 444.421 347.65 441.961 347.65 441.961L348.99 426.641Z" fill="#496281"/>
<path d="M313.12 160.391C313.12 160.391 301.94 159.561 300.54 170.761C299.14 181.961 309.25 181.921 309.25 181.921L313.12 160.391Z" fill="#263238"/>
<path d="M377.72 161.681C377.72 161.681 388.9 160.851 390.3 172.041C391.7 183.231 381.59 183.201 381.59 183.201L377.72 161.681Z" fill="#263238"/>
<path d="M393.36 229.151C397.154 229.151 400.23 226.075 400.23 222.281C400.23 218.487 397.154 215.411 393.36 215.411C389.566 215.411 386.49 218.487 386.49 222.281C386.49 226.075 389.566 229.151 393.36 229.151Z" fill="#263238"/>
<path d="M370.42 231.831H321.13C320.05 231.831 319.17 230.951 319.17 229.871C319.17 228.791 320.05 227.911 321.13 227.911H370.42C371.5 227.911 372.38 228.791 372.38 229.871C372.38 230.951 371.5 231.831 370.42 231.831Z" fill="#263238"/>
<path d="M367.22 227.911H324.31C323.23 227.911 322.35 227.031 322.35 225.951C322.35 224.871 323.23 223.991 324.31 223.991H367.22C368.3 223.991 369.18 224.871 369.18 225.951C369.18 227.031 368.3 227.911 367.22 227.911Z" fill="#263238"/>
<path d="M353.172 181.149C353.933 176.444 350.736 172.013 346.031 171.252C341.326 170.491 336.894 173.688 336.133 178.393C335.372 183.098 338.569 187.529 343.274 188.29C347.979 189.052 352.411 185.855 353.172 181.149Z" fill="white"/>
<path d="M347.87 127.981H345.03C337.54 127.981 331.47 121.911 331.47 114.421C331.47 106.931 337.54 100.861 345.03 100.861H347.87C355.36 100.861 361.42 106.931 361.42 114.421C361.42 121.911 355.35 127.981 347.87 127.981Z" fill="#263238"/>
<path d="M257.97 183.011C257.61 182.791 257.24 182.581 256.86 182.391C256.67 182.821 256.51 183.321 256.41 183.901C255.87 186.921 256.02 188.501 256.02 188.501C256.02 188.501 250.78 184.521 249.71 183.561C249.27 183.161 247.88 181.901 246.25 180.771C244.61 181.181 243.06 181.941 241.78 183.011C244.05 184.791 248.23 187.801 247.87 188.561C247.58 189.181 243.49 186.271 240.21 184.661C240.14 184.761 240.06 184.861 239.99 184.961C239.32 185.941 238.86 187.041 238.56 188.181C240.89 189.421 243.59 190.861 243.69 191.321C243.78 191.721 240.95 190.671 238.22 189.891C238.11 190.761 238.07 191.651 238.1 192.531C238.12 193.071 238.17 193.611 238.23 194.151C241 195.131 244.72 195.561 243.18 196.061C242.24 196.371 240.26 196.171 238.53 196.101C238.74 197.201 239 198.291 239.27 199.371C241.53 199.821 243.85 199.661 244.94 200.421C246.13 201.251 249.34 204.131 252.22 204.551C255.1 204.971 256.84 204.801 256.84 204.801L263.02 194.811C263.02 194.811 262.2 190.461 261.58 188.211C261.19 186.801 261.2 185.421 261.17 184.221C260.04 184.331 258.94 183.631 257.94 183.021L257.97 183.011Z" fill="#263238"/>
<path d="M238.23 189.891C235.78 189.191 233.41 188.721 233.31 189.721C233.11 191.831 234.13 191.901 236.63 193.421C237.08 193.691 237.64 193.931 238.25 194.151C238.19 193.611 238.14 193.071 238.12 192.531C238.09 191.651 238.12 190.771 238.24 189.891H238.23Z" fill="#455A64"/>
<path d="M246.25 180.771C243.92 179.161 241.09 177.841 239.77 179.701C239.77 179.701 239.13 180.821 241.06 182.431C241.26 182.601 241.51 182.801 241.78 183.011C243.06 181.941 244.61 181.191 246.25 180.771Z" fill="#455A64"/>
<path d="M235.42 196.921C235.51 198.571 236.21 198.601 238.66 199.231C238.87 199.281 239.08 199.331 239.29 199.371C239.02 198.291 238.76 197.201 238.55 196.101C236.84 196.031 235.37 196.101 235.42 196.921Z" fill="#455A64"/>
<path d="M261.19 184.211C261.16 182.861 261.08 181.741 260.34 181.071C259.2 180.051 257.68 180.561 256.86 182.391C257.24 182.591 257.6 182.791 257.97 183.011C258.97 183.621 260.07 184.321 261.2 184.211H261.19Z" fill="#455A64"/>
<path d="M240 184.961C240.07 184.861 240.14 184.761 240.22 184.661C239.03 184.081 237.95 183.671 237.19 183.661C234.33 183.621 234.3 185.531 235.36 186.371C235.77 186.691 237.1 187.401 238.57 188.181C238.87 187.041 239.33 185.941 240 184.961Z" fill="#455A64"/>
<path d="M255.71 198.341C255.71 198.341 255.56 198.271 255.36 198.061C255.16 197.861 254.88 197.531 254.63 197.081C254.38 196.621 254.15 196.031 254.06 195.351C253.97 194.661 254.02 193.881 254.3 193.121C254.73 191.911 255.59 191.011 256.41 190.541L256.36 190.681C256.01 189.311 255.81 188.421 255.86 188.401C255.91 188.391 256.2 189.251 256.6 190.611L256.63 190.701L256.55 190.751C255.8 191.231 255.01 192.091 254.6 193.231C254.07 194.671 254.4 196.111 254.83 196.991C255.27 197.891 255.77 198.311 255.72 198.351L255.71 198.341Z" fill="#455A64"/>
<path d="M249.94 188.571C249.94 188.571 249.43 188.961 248.69 189.661C247.95 190.351 247.03 191.441 246.33 192.831C245.63 194.221 245.3 195.601 245.19 196.611C245.07 197.621 245.11 198.261 245.06 198.261C245.04 198.261 245.01 198.101 244.99 197.811C244.96 197.521 244.95 197.101 244.99 196.581C245.05 195.541 245.36 194.111 246.08 192.681C246.8 191.261 247.77 190.161 248.57 189.491C248.97 189.151 249.31 188.911 249.56 188.761C249.81 188.611 249.95 188.541 249.96 188.551L249.94 188.571Z" fill="#455A64"/>
<path d="M387.06 286.841C387.13 287.261 387.21 287.671 387.31 288.081C387.76 287.941 388.25 287.731 388.75 287.441C391.39 285.871 392.49 284.731 392.49 284.731C392.49 284.731 392.9 291.301 392.87 292.731C392.86 293.321 392.81 295.201 393.02 297.171C394.4 298.141 395.99 298.821 397.64 299.091C397.51 296.211 397.05 291.081 397.86 290.851C398.52 290.661 398.99 295.661 399.92 299.191C400.04 299.191 400.17 299.171 400.29 299.161C401.47 299.021 402.6 298.661 403.66 298.141C403.08 295.571 402.4 292.581 402.68 292.201C402.92 291.871 403.98 294.701 405.17 297.271C405.9 296.781 406.6 296.241 407.24 295.641C407.64 295.271 408.01 294.881 408.38 294.481C407.31 291.751 405.21 288.651 406.59 289.491C407.44 290.001 408.58 291.631 409.66 292.981C410.35 292.111 411.01 291.201 411.65 290.281C410.51 288.271 408.88 286.621 408.74 285.311C408.59 283.871 408.67 279.561 407.1 277.101C405.53 274.641 404.26 273.441 404.26 273.441L392.67 275.291C392.67 275.291 389.91 278.751 388.61 280.691C387.8 281.901 386.74 282.801 385.85 283.611C386.67 284.391 386.86 285.681 387.06 286.841Z" fill="#263238"/>
<path d="M405.16 297.281C406.23 299.591 407.42 301.701 408.24 301.121C409.97 299.901 409.36 299.081 408.88 296.191C408.79 295.671 408.61 295.091 408.37 294.491C408 294.891 407.63 295.281 407.23 295.651C406.59 296.251 405.89 296.801 405.16 297.281Z" fill="#455A64"/>
<path d="M393.02 297.171C393.33 299.981 394.17 302.991 396.45 302.771C396.45 302.771 397.71 302.531 397.67 300.011C397.67 299.741 397.65 299.431 397.64 299.091C395.99 298.821 394.41 298.141 393.02 297.171Z" fill="#455A64"/>
<path d="M412.32 294.811C413.51 293.671 413.07 293.121 411.95 290.851C411.85 290.661 411.75 290.471 411.64 290.281C411 291.201 410.34 292.101 409.65 292.981C410.72 294.321 411.73 295.381 412.32 294.811Z" fill="#455A64"/>
<path d="M385.85 283.611C384.85 284.521 384.05 285.311 384.03 286.311C384 287.841 385.38 288.661 387.31 288.081C387.21 287.671 387.13 287.251 387.06 286.841C386.86 285.691 386.68 284.401 385.85 283.611Z" fill="#455A64"/>
<path d="M400.27 299.161C400.15 299.171 400.03 299.181 399.9 299.191C400.24 300.471 400.63 301.561 401.12 302.141C402.96 304.331 404.43 303.101 404.36 301.751C404.34 301.231 404 299.761 403.64 298.131C402.57 298.651 401.45 299.021 400.27 299.151V299.161Z" fill="#455A64"/>
<path d="M339.99 432.601C344.789 432.601 348.68 428.71 348.68 423.911C348.68 419.112 344.789 415.221 339.99 415.221C335.191 415.221 331.3 419.112 331.3 423.911C331.3 428.71 335.191 432.601 339.99 432.601Z" fill="#263238"/>
<path d="M357.24 432.601C362.039 432.601 365.93 428.71 365.93 423.911C365.93 419.112 362.039 415.221 357.24 415.221C352.441 415.221 348.55 419.112 348.55 423.911C348.55 428.71 352.441 432.601 357.24 432.601Z" fill="#263238"/>
<path d="M367.9 242.041C367.9 242.041 367.85 242.411 367.67 243.051C367.59 243.381 367.45 243.761 367.28 244.211C367.13 244.661 366.92 245.161 366.67 245.711C365.71 247.901 363.99 250.791 361.5 253.481C359.02 256.191 356.22 258.081 354.05 259.101C352.96 259.611 352.06 259.961 351.41 260.121C350.77 260.301 350.41 260.391 350.4 260.351C350.37 260.251 351.8 259.861 353.89 258.771C355.98 257.681 358.68 255.791 361.12 253.121C363.57 250.471 365.31 247.671 366.34 245.551C367.39 243.431 367.81 242.011 367.9 242.041Z" fill="#455A64"/>
<path d="M343.58 260.401C343.58 260.401 343.18 260.361 342.49 260.201C342.14 260.121 341.72 260.021 341.24 259.841C340.76 259.671 340.2 259.511 339.62 259.251C338.43 258.781 337.07 258.071 335.64 257.151C334.23 256.211 332.76 255.051 331.37 253.661C330 252.251 328.87 250.761 327.95 249.331C327.06 247.881 326.38 246.511 325.93 245.311C325.67 244.721 325.52 244.161 325.37 243.681C325.21 243.201 325.11 242.771 325.04 242.421C324.89 241.721 324.82 241.331 324.86 241.321C324.96 241.291 325.28 242.841 326.28 245.171C326.77 246.341 327.47 247.671 328.37 249.071C329.29 250.461 330.41 251.911 331.75 253.291C333.11 254.651 334.54 255.801 335.91 256.751C337.3 257.671 338.62 258.401 339.77 258.911C342.07 259.951 343.62 260.301 343.59 260.401H343.58Z" fill="#455A64"/>
<path d="M369.77 231.571C369.77 231.711 358.85 231.831 345.38 231.831C331.91 231.831 320.98 231.711 320.98 231.571C320.98 231.431 331.9 231.311 345.38 231.311C358.86 231.311 369.77 231.431 369.77 231.571Z" fill="#455A64"/>
<path d="M369.78 227.931C369.78 228.071 359.33 228.141 346.45 228.081C333.56 228.021 323.12 227.851 323.12 227.711C323.12 227.571 333.57 227.501 346.46 227.561C359.34 227.621 369.79 227.791 369.79 227.931H369.78Z" fill="#455A64"/>
<path d="M339.43 117.501C341.126 117.501 342.5 116.127 342.5 114.431C342.5 112.736 341.126 111.361 339.43 111.361C337.734 111.361 336.36 112.736 336.36 114.431C336.36 116.127 337.734 117.501 339.43 117.501Z" fill="#455A64"/>
<path d="M355.18 117.501C356.876 117.501 358.25 116.127 358.25 114.431C358.25 112.736 356.876 111.361 355.18 111.361C353.484 111.361 352.11 112.736 352.11 114.431C352.11 116.127 353.484 117.501 355.18 117.501Z" fill="#455A64"/>
<path d="M486.46 128.171C487.08 127.091 487.73 126.311 488.87 125.831C499.11 121.581 510.85 122.091 521.42 125.421C524.17 126.291 527.1 127.551 528.37 130.151V130.321C528.92 132.021 528.04 134.181 526.73 135.381C525.42 136.581 523.69 137.191 521.98 137.641C513.85 139.811 505.23 139.111 496.94 137.711C494.99 137.381 493.04 137.011 491.21 136.261C489.38 135.511 487.67 134.361 486.53 132.731C485.57 131.351 485.62 129.621 486.46 128.161V128.171Z" fill="#455A64"/>
<g opacity="0.3">
<path d="M486.46 128.171C487.08 127.091 487.73 126.311 488.87 125.831C499.11 121.581 510.85 122.091 521.42 125.421C524.17 126.291 527.1 127.551 528.37 130.151V130.321C528.92 132.021 528.04 134.181 526.73 135.381C525.42 136.581 523.69 137.191 521.98 137.641C513.85 139.811 505.23 139.111 496.94 137.711C494.99 137.381 493.04 137.011 491.21 136.261C489.38 135.511 487.67 134.361 486.53 132.731C485.57 131.351 485.62 129.621 486.46 128.161V128.171Z" fill="black"/>
</g>
<path d="M521.23 145.261C522.4 141.711 523.56 138.131 524.11 134.431C524.66 130.731 524.56 126.871 523.28 123.361C523.09 122.831 521.42 119.251 520.85 119.311C520.45 119.351 521.47 122.681 521.26 123.031C519.3 126.361 518.75 130.381 519.04 134.241C519.33 138.101 520.12 141.571 521.23 145.271" fill="#263238"/>
<path d="M490.66 129.761C490.94 121.031 497.88 113.971 506.61 113.551L507.48 113.511C516.86 113.601 522.02 121.621 521.67 131.001L521.36 161.281L498.42 175.641L500.13 163.571C500.13 163.571 500.11 161.161 500.09 161.161C500.09 161.161 491.03 160.201 490.48 151.211C490.22 146.871 490.4 137.891 490.66 129.761Z" fill="#FFBF9D"/>
<path d="M500.09 161.161C500.09 161.161 505.77 161.221 511.63 157.131C511.63 157.131 509.14 163.941 500.13 163.561L500.09 161.151V161.161Z" fill="#FF9A6C"/>
<path d="M493.68 137.731C493.68 138.411 494.27 138.961 494.98 138.971C495.69 138.971 496.26 138.431 496.25 137.751C496.25 137.071 495.66 136.521 494.95 136.511C494.24 136.511 493.67 137.051 493.68 137.731Z" fill="#263238"/>
<path d="M492.77 133.401C492.94 133.561 493.87 132.791 495.26 132.731C496.64 132.651 497.69 133.311 497.83 133.131C497.9 133.051 497.72 132.761 497.27 132.461C496.82 132.161 496.06 131.891 495.2 131.931C494.34 131.981 493.63 132.331 493.23 132.671C492.82 133.021 492.69 133.331 492.77 133.401Z" fill="#263238"/>
<path d="M505.91 137.521C505.91 138.201 506.5 138.751 507.21 138.761C507.92 138.761 508.49 138.221 508.48 137.541C508.48 136.861 507.89 136.311 507.18 136.301C506.47 136.301 505.9 136.841 505.91 137.521Z" fill="#263238"/>
<path d="M506.33 133.301C506.5 133.461 507.44 132.691 508.82 132.631C510.2 132.551 511.25 133.211 511.39 133.031C511.46 132.951 511.28 132.661 510.83 132.361C510.38 132.061 509.62 131.791 508.76 131.831C507.9 131.881 507.19 132.231 506.79 132.571C506.38 132.921 506.25 133.231 506.33 133.301Z" fill="#263238"/>
<path d="M501.89 144.161C501.89 144.081 501.03 143.971 499.63 143.861C499.28 143.841 498.94 143.791 498.87 143.551C498.77 143.301 498.9 142.911 499.05 142.491C499.34 141.621 499.64 140.711 499.96 139.751C501.22 135.851 502.12 132.661 501.96 132.611C501.8 132.561 500.65 135.681 499.39 139.571C499.09 140.531 498.8 141.451 498.52 142.321C498.41 142.731 498.2 143.191 498.4 143.711C498.51 143.971 498.78 144.151 499.01 144.201C499.24 144.261 499.44 144.251 499.61 144.251C501.01 144.251 501.88 144.221 501.88 144.141L501.89 144.161Z" fill="#263238"/>
<path d="M506 144.921C505.77 144.921 505.84 146.421 504.61 147.541C503.38 148.671 501.77 148.581 501.77 148.791C501.75 148.891 502.14 149.061 502.82 149.051C503.48 149.051 504.44 148.781 505.19 148.091C505.94 147.401 506.24 146.511 506.26 145.891C506.29 145.261 506.1 144.901 506 144.911V144.921Z" fill="#263238"/>
<path d="M506.13 127.691C506.28 128.061 507.66 127.811 509.29 127.931C510.92 128.011 512.25 128.431 512.45 128.081C512.54 127.911 512.29 127.571 511.75 127.231C511.21 126.891 510.36 126.591 509.38 126.531C508.4 126.471 507.52 126.671 506.94 126.941C506.36 127.211 506.07 127.521 506.14 127.691H506.13Z" fill="#263238"/>
<path d="M493.11 128.781C493.37 129.081 494.3 128.711 495.45 128.641C496.59 128.531 497.57 128.751 497.78 128.411C497.87 128.251 497.7 127.941 497.26 127.661C496.83 127.381 496.12 127.181 495.33 127.241C494.55 127.301 493.88 127.621 493.49 127.961C493.1 128.301 492.98 128.631 493.1 128.781H493.11Z" fill="#263238"/>
<path d="M521.26 137.691C521.41 137.621 527.35 135.561 527.45 141.721C527.55 147.881 520.89 146.831 520.88 146.651C520.87 146.471 521.26 137.691 521.26 137.691Z" fill="#FFBF9D"/>
<path d="M523.18 144.161C523.18 144.161 523.29 144.231 523.47 144.311C523.65 144.391 523.95 144.441 524.27 144.311C524.92 144.061 525.45 143.021 525.46 141.911C525.46 141.351 525.34 140.821 525.13 140.381C524.93 139.931 524.64 139.621 524.31 139.571C523.98 139.501 523.75 139.701 523.68 139.871C523.6 140.041 523.64 140.171 523.61 140.181C523.59 140.201 523.48 140.081 523.52 139.821C523.54 139.701 523.61 139.551 523.76 139.431C523.91 139.311 524.12 139.241 524.35 139.261C524.82 139.281 525.26 139.711 525.49 140.201C525.74 140.681 525.9 141.281 525.89 141.911C525.87 143.151 525.26 144.321 524.37 144.591C523.94 144.711 523.58 144.591 523.39 144.441C523.2 144.291 523.16 144.151 523.18 144.141V144.161Z" fill="#FF9A6C"/>
<path d="M494.57 119.531C493.57 118.991 496.53 115.741 498.97 114.611C502.66 112.901 508.3 111.831 511.72 112.771C515.84 113.901 519.27 115.921 521.36 119.641C523.45 123.361 524.26 127.711 524.17 131.981C524.14 133.281 524.02 134.641 523.33 135.751C522.48 137.121 520.84 137.991 520.92 139.861C520.95 140.551 520.76 141.241 520.29 141.741C519.17 142.951 517.79 141.831 517.14 140.711C515.77 138.311 515.6 135.431 515.46 132.671C515.36 130.711 515.27 128.701 515.8 126.811C516.09 125.781 516.57 124.811 516.81 123.761C517.05 122.721 517 121.541 516.35 120.691C516.24 120.551 516.07 120.381 515.85 120.191C514.09 118.681 511.65 118.241 509.47 119.031C506.01 120.281 500.11 122.161 498.55 121.001C496.31 119.321 495.77 118.221 495.77 118.221L494.56 119.521L494.57 119.531Z" fill="#263238"/>
<path d="M490.71 128.891C490.71 128.891 495.11 126.381 500.54 126.461C515.77 126.681 524.35 132.151 524.35 132.151L524.54 127.721C524.54 127.721 502.27 123.261 502.11 123.261C501.95 123.261 495.26 124.401 495.1 124.451C494.94 124.511 490.97 125.151 490.97 125.151C490.71 126.471 490.59 127.741 490.71 128.901V128.891Z" fill="#455A64"/>
<g opacity="0.6">
<path d="M490.71 128.891C490.71 128.891 495.11 126.381 500.54 126.461C515.77 126.681 524.35 132.151 524.35 132.151L524.54 127.721C524.54 127.721 502.27 123.261 502.11 123.261C501.95 123.261 495.26 124.401 495.1 124.451C494.94 124.511 490.97 125.151 490.97 125.151C490.71 126.471 490.59 127.741 490.71 128.901V128.891Z" fill="#455A64"/>
</g>
<path d="M485.87 129.561C485.87 129.561 489.81 122.901 507.45 125.251C525.96 127.711 528.37 132.661 528.37 132.661C528.37 132.661 529.65 128.441 526.63 126.291C526.63 126.291 526.87 118.491 521.66 112.231C519.8 109.991 516.39 108.041 515.68 107.441L515.59 106.201C515.59 106.201 514.31 104.701 508.05 104.481C501.58 104.261 500.25 106.261 500.25 106.261L500.09 107.371C500.09 107.371 490.05 111.841 489.05 124.691C489.05 124.691 485.5 126.991 485.87 129.561Z" fill="#496281"/>
<g opacity="0.3">
<path d="M515.59 106.201C514.54 107.411 512.72 109.511 512.36 111.291C512.01 113.071 511.93 114.921 511.86 116.751C513.03 110.751 513.92 109.901 515.68 107.441L515.59 106.201Z" fill="black"/>
</g>
<path d="M526.63 126.291C526.63 126.291 526.52 126.221 526.28 126.111C526 125.991 525.66 125.841 525.24 125.671C524.79 125.481 524.23 125.251 523.57 125.041C522.91 124.821 522.17 124.531 521.32 124.311C517.97 123.321 513.21 122.271 507.88 121.891C502.55 121.461 497.67 121.821 494.25 122.601C493.4 122.831 492.63 123.031 491.97 123.261C491.32 123.531 490.76 123.731 490.32 123.951C489.93 124.181 489.61 124.361 489.34 124.521C489.12 124.651 489.01 124.731 489.02 124.741C489.02 124.751 489.15 124.701 489.39 124.591C489.66 124.461 489.99 124.291 490.39 124.101C490.83 123.901 491.4 123.731 492.05 123.491C492.71 123.291 493.47 123.101 494.32 122.901C497.72 122.201 502.56 121.891 507.86 122.321C513.16 122.701 517.89 123.691 521.25 124.611C522.1 124.811 522.84 125.081 523.5 125.281C524.17 125.471 524.73 125.671 525.18 125.841C525.6 125.991 525.95 126.111 526.24 126.211C526.48 126.291 526.62 126.331 526.62 126.311L526.63 126.291Z" fill="#263238"/>
<path d="M515.59 106.201C515.59 106.201 515.09 106.611 514.38 107.361C513.69 108.101 512.67 109.231 512.2 110.791C511.71 112.321 511.63 113.791 511.67 114.821C511.71 115.861 511.84 116.491 511.89 116.491C511.95 116.491 511.93 115.851 511.97 114.821C512.01 113.801 512.13 112.391 512.6 110.911C513.05 109.431 513.97 108.341 514.61 107.541C515.26 106.741 515.64 106.231 515.6 106.191L515.59 106.201Z" fill="#263238"/>
<g opacity="0.3">
<path d="M515.64 110.401C515.64 110.131 515.64 109.831 515.81 109.631C515.97 109.421 516.26 109.371 516.5 109.421C516.75 109.481 516.96 109.621 517.17 109.771C521.59 112.951 524.55 118.361 525.02 124.041C525.04 124.321 524.76 124.501 524.53 124.361C522.49 123.131 520.29 122.331 517.99 121.801C517.24 121.631 516.14 121.671 515.83 120.881C515.64 120.411 515.64 119.881 515.64 119.371C515.64 116.381 515.64 113.391 515.64 110.401Z" fill="white"/>
</g>
<path d="M500.24 114.111C500.36 114.101 500.28 112.481 500.22 110.481C500.16 108.481 500.13 106.861 500.01 106.861C499.9 106.861 499.74 108.481 499.81 110.491C499.87 112.501 500.13 114.121 500.24 114.101V114.111Z" fill="#263238"/>
<path d="M481.04 413.291L481.76 431.961C481.76 431.961 462.68 438.951 462.47 442.411L499.38 442.341L499.48 413.211L481.04 413.291Z" fill="#263238"/>
<path d="M493.16 430.371C493.87 430.561 494.37 431.351 494.21 432.061C494.05 432.771 493.23 433.271 492.52 433.091C491.8 432.911 491.18 431.981 491.42 431.301C491.66 430.611 492.65 430.081 493.3 430.421" fill="#E0E0E0"/>
<path d="M499.37 442.341L499.26 439.401L463.91 440.561C463.91 440.561 462.27 441.261 462.46 442.401L499.37 442.331V442.341Z" fill="#455A64"/>
<path d="M481.15 431.781C481.15 431.961 482.06 432.041 482.95 432.601C483.85 433.141 484.31 433.911 484.48 433.841C484.65 433.811 484.38 432.751 483.29 432.081C482.21 431.401 481.12 431.621 481.16 431.781H481.15Z" fill="white"/>
<path d="M477.29 433.361C477.25 433.531 478.03 433.831 478.64 434.581C479.28 435.311 479.43 436.121 479.61 436.111C479.78 436.141 479.9 435.101 479.12 434.191C478.35 433.271 477.29 433.201 477.28 433.361H477.29Z" fill="white"/>
<path d="M475.09 437.911C475.25 437.951 475.5 437.061 475.04 436.091C474.58 435.121 473.73 434.741 473.66 434.881C473.56 435.031 474.11 435.541 474.48 436.351C474.87 437.141 474.92 437.891 475.1 437.911H475.09Z" fill="white"/>
<path d="M481.47 427.501C481.55 427.661 482.37 427.421 483.39 427.481C484.41 427.531 485.2 427.861 485.3 427.711C485.4 427.581 484.63 426.931 483.43 426.871C482.23 426.801 481.38 427.361 481.47 427.501Z" fill="white"/>
<path d="M524.43 414.701L525.44 436.941L521.07 454.761C520.76 456.041 521.61 457.321 522.94 457.541C523.68 457.661 524.43 457.431 524.97 456.911C528.36 453.581 540.42 441.101 540.47 439.911C540.55 438.021 541.11 416.111 541.11 416.111L524.43 414.701Z" fill="#263238"/>
<path d="M522.94 457.541L540.55 438.141L540.57 439.081C540.51 440.041 540.31 440.691 539.79 441.321C538.39 443.011 534.41 447.601 525.03 456.901C524.48 457.441 523.7 457.681 522.93 457.531L522.94 457.541Z" fill="#455A64"/>
<path d="M535.75 431.061C535.19 431.461 535.02 432.301 535.4 432.871C535.78 433.441 536.66 433.611 537.22 433.221C537.79 432.831 538.02 431.821 537.57 431.301C537.13 430.781 536.09 430.631 535.63 431.141" fill="white"/>
<path d="M527.91 447.711C527.78 447.771 527.25 446.621 525.88 446.021C524.54 445.381 523.29 445.721 523.26 445.591C523.24 445.541 523.52 445.361 524.05 445.271C524.57 445.181 525.34 445.241 526.09 445.581C526.84 445.921 527.37 446.461 527.64 446.911C527.91 447.361 527.96 447.691 527.9 447.711H527.91Z" fill="white"/>
<path d="M526.36 450.721C526.25 450.821 525.51 450.111 524.33 449.811C523.16 449.481 522.15 449.711 522.11 449.581C522.04 449.471 523.12 448.971 524.46 449.341C525.8 449.701 526.47 450.661 526.36 450.731V450.721Z" fill="white"/>
<path d="M530.83 443.821C530.73 443.931 529.59 442.831 527.8 442.201C526.02 441.541 524.43 441.651 524.42 441.501C524.38 441.381 526.06 441.041 527.97 441.741C529.89 442.421 530.94 443.751 530.83 443.821Z" fill="white"/>
<path d="M531.1 437.041C531.04 437.171 529.78 436.691 528.15 436.661C526.52 436.611 525.24 437.051 525.18 436.911C525.12 436.801 526.4 436.131 528.16 436.171C529.91 436.201 531.17 436.931 531.1 437.031V437.041Z" fill="white"/>
<path d="M530.97 430.501C530.9 430.631 529.63 429.921 527.91 430.031C526.19 430.111 525 430.961 524.92 430.841C524.88 430.791 525.12 430.511 525.64 430.201C526.15 429.891 526.96 429.601 527.88 429.541C528.81 429.491 529.64 429.691 530.18 429.941C530.73 430.191 531 430.451 530.97 430.491V430.501Z" fill="white"/>
<path d="M527.92 428.791C527.92 428.791 527.83 428.491 527.87 427.951C527.91 427.411 528.05 426.611 528.5 425.731C528.74 425.311 528.98 424.771 529.61 424.471C529.92 424.321 530.39 424.361 530.67 424.651C530.94 424.931 531.04 425.291 531.05 425.651C531.05 427.061 529.85 428.461 528.24 428.691C526.62 428.901 525.13 428.021 524.46 426.811C524.31 426.501 524.21 426.111 524.37 425.731C524.53 425.351 524.99 425.191 525.32 425.231C526 425.311 526.43 425.691 526.83 425.961C527.62 426.561 528.12 427.201 528.41 427.661C528.7 428.121 528.8 428.411 528.78 428.421C528.7 428.481 528.18 427.341 526.62 426.241C526.23 425.991 525.77 425.671 525.29 425.641C525.05 425.621 524.85 425.721 524.77 425.911C524.69 426.091 524.74 426.371 524.87 426.621C525.44 427.611 526.8 428.411 528.17 428.211C529.53 428.021 530.59 426.801 530.59 425.661C530.59 425.391 530.51 425.111 530.35 424.951C530.2 424.791 529.98 424.751 529.77 424.841C529.33 425.021 529.05 425.501 528.81 425.891C527.89 427.541 528.02 428.811 527.92 428.791Z" fill="white"/>
<path d="M475.44 260.731C475.44 260.731 471 273.861 471.44 286.391C471.61 291.241 479.19 425.351 479.19 425.351L501.61 426.281L500.73 300.381L502.55 300.851C502.55 300.851 512.48 354.951 513.1 363.661C513.66 371.501 521.54 428.581 521.54 428.581L541.96 428.031L538.72 354.461L534.21 282.241L532.25 261.191L475.45 260.741L475.44 260.731Z" fill="#263238"/>
<path d="M503.42 287.711C503.42 287.711 503.09 287.911 502.46 288.191C501.83 288.451 500.89 288.851 499.64 289.031C499.02 289.121 498.31 289.121 497.57 288.961C496.84 288.801 496.07 288.461 495.45 287.851C494.84 287.241 494.46 286.411 494.24 285.551C494.01 284.681 493.9 283.791 493.75 282.881C493.19 279.221 492.85 275.891 492.67 273.481C492.58 272.271 492.53 271.291 492.51 270.621C492.49 269.941 492.5 269.571 492.53 269.571C492.56 269.571 492.62 269.941 492.7 270.611C492.78 271.381 492.89 272.331 493.01 273.461C493.27 275.861 493.67 279.181 494.22 282.821C494.5 284.621 494.67 286.451 495.76 287.571C496.85 288.661 498.43 288.841 499.59 288.721C500.79 288.591 501.73 288.251 502.38 288.041C503.03 287.821 503.39 287.701 503.41 287.731L503.42 287.711Z" fill="#455A64"/>
<path d="M497.4 270.391C497.4 270.391 497.55 270.281 497.87 270.281C498.18 270.281 498.65 270.381 499.11 270.731C499.54 271.071 500 271.671 499.98 272.471C499.98 273.281 499.31 274.041 498.46 274.301C497.62 274.581 496.62 274.361 496.13 273.711C495.64 273.081 495.64 272.331 495.78 271.801C495.94 271.261 496.25 270.891 496.51 270.721C496.77 270.541 496.95 270.521 496.96 270.541C497.02 270.601 496.31 270.881 496.11 271.871C496.02 272.341 496.07 272.961 496.47 273.431C496.85 273.911 497.61 274.081 498.31 273.851C499.01 273.631 499.52 273.051 499.54 272.441C499.58 271.831 499.24 271.301 498.89 270.971C498.13 270.291 497.39 270.471 497.4 270.391Z" fill="#455A64"/>
<path d="M532.54 280.931C532.54 280.931 532.27 280.991 531.77 281.021C531.27 281.051 530.55 281.031 529.67 280.961C527.9 280.811 525.46 280.281 522.98 279.141C520.51 277.991 518.55 276.471 517.3 275.231C516.67 274.611 516.2 274.071 515.91 273.681C515.61 273.291 515.46 273.061 515.49 273.041C515.56 272.991 516.24 273.831 517.53 274.991C518.81 276.161 520.76 277.601 523.18 278.721C525.6 279.831 527.97 280.401 529.7 280.631C531.44 280.871 532.53 280.851 532.53 280.941L532.54 280.931Z" fill="#455A64"/>
<path d="M442.89 186.061C441.34 184.071 439.53 181.921 439.53 181.921L438.02 179.921C437.93 180.061 437.85 180.211 437.78 180.361C437.65 180.651 437.51 180.951 437.26 181.141C436.78 181.501 436.07 181.281 435.58 180.931C434.55 180.201 433.96 178.891 434.09 177.641C434.22 176.441 435.01 175.341 436.1 174.821C436.22 174.521 436.4 174.231 436.66 173.961C438.3 172.281 441.66 172.901 441.66 172.901L441.23 172.131C441.23 172.131 439.07 170.441 434.98 172.441C434.37 172.741 433.66 172.831 433 172.641C432.6 172.531 432.22 172.311 432.03 171.901C431.57 170.891 432.17 170.311 434.71 169.031C437.25 167.751 440.13 167.361 441.84 168.211C443.55 169.061 444.16 169.511 444.16 169.511C444.16 169.511 440.68 162.321 440.48 161.851C439.9 160.511 440.01 159.131 440.87 158.661C441.42 158.361 442.34 158.381 443.07 159.931C443.7 161.261 451.9 174.131 451.9 174.131L455.19 180.031L457.11 185.341L449.31 191.071L447.42 188.881C445.62 188.501 444.01 187.491 442.88 186.041L442.89 186.061Z" fill="#FFBF9D"/>
<path d="M441.78 172.911C441.73 172.951 441.52 172.271 440.65 171.741C440.22 171.481 439.62 171.341 438.96 171.411C438.3 171.471 437.59 171.721 436.87 172.041C436.15 172.351 435.44 172.671 434.74 172.811C434.05 172.951 433.39 172.941 432.86 172.761C432.33 172.581 432.03 172.171 431.95 171.881C431.86 171.591 431.89 171.421 431.9 171.421C431.93 171.421 431.95 171.581 432.07 171.831C432.18 172.081 432.46 172.411 432.94 172.541C433.41 172.681 434.03 172.671 434.68 172.521C435.33 172.371 436.01 172.061 436.74 171.741C437.47 171.421 438.21 171.161 438.93 171.111C439.64 171.051 440.31 171.231 440.76 171.541C441.22 171.841 441.48 172.201 441.62 172.461C441.76 172.721 441.79 172.891 441.77 172.891L441.78 172.911Z" fill="#FF9A6C"/>
<path d="M440.27 161.351C440.27 161.351 440.57 161.881 440.97 162.781C441.43 163.771 441.97 164.951 442.57 166.251C443.19 167.541 443.75 168.721 444.22 169.701C444.65 170.581 444.91 171.131 444.87 171.151C444.83 171.171 444.5 170.661 444.02 169.801C443.54 168.941 442.92 167.741 442.28 166.381C441.64 165.021 441.11 163.781 440.76 162.861C440.41 161.941 440.23 161.361 440.27 161.351Z" fill="#FF9A6C"/>
<path d="M440.92 175.291C440.92 175.291 440.74 175.311 440.42 175.321C440.12 175.341 439.61 175.371 439.28 175.781C439.12 175.981 439.08 176.261 439.19 176.551C439.29 176.841 439.49 177.131 439.7 177.451C439.9 177.761 440.13 178.181 440.06 178.661C439.99 179.131 439.66 179.531 439.23 179.741C438.79 179.961 438.28 179.931 437.87 179.781C437.45 179.621 437.1 179.361 436.86 179.021C436.42 178.361 436.19 177.711 436.01 177.161C435.85 176.601 435.79 176.131 435.81 175.801C435.84 175.471 435.92 175.311 435.94 175.311C435.97 175.311 435.92 175.491 435.94 175.801C435.95 176.111 436.04 176.561 436.23 177.091C436.42 177.611 436.68 178.251 437.1 178.851C437.5 179.391 438.38 179.801 439.09 179.461C439.44 179.291 439.7 178.961 439.76 178.611C439.82 178.261 439.65 177.911 439.46 177.601C439.27 177.291 439.05 176.971 438.95 176.621C438.83 176.281 438.89 175.871 439.12 175.631C439.56 175.151 440.13 175.171 440.43 175.191C440.76 175.221 440.93 175.261 440.93 175.281L440.92 175.291Z" fill="#FF9A6C"/>
<path d="M445.15 182.031C445.15 182.031 445.37 181.831 445.85 181.721C446.32 181.611 447.04 181.591 447.79 181.931L447.58 182.111C447.47 181.791 447.37 181.441 447.28 181.071C446.82 179.021 447.28 177.331 447.34 177.371C447.44 177.371 447.14 179.031 447.59 181.011C447.67 181.371 447.76 181.711 447.86 182.021L447.97 182.361L447.65 182.201C446.99 181.871 446.33 181.851 445.88 181.901C445.43 181.951 445.17 182.061 445.15 182.021V182.031Z" fill="#FF9A6C"/>
<path d="M439.2 169.801C439.28 169.801 439.25 170.451 438.74 171.021C438.24 171.591 437.6 171.701 437.59 171.621C437.56 171.531 438.07 171.311 438.51 170.811C438.95 170.321 439.11 169.781 439.21 169.801H439.2Z" fill="#FF9A6C"/>
<path d="M451.44 174.811C451.44 174.811 451.11 174.721 450.52 174.651C449.92 174.581 449.06 174.491 447.99 174.391C446.88 174.301 445.61 174.191 444.23 174.071C443.88 174.041 443.51 174.011 443.14 173.991C442.79 173.991 442.34 173.841 441.87 174.191C441.64 174.381 441.59 174.741 441.7 174.981C441.79 175.221 441.94 175.401 442.11 175.551C442.44 175.821 442.78 176.071 443.16 176.261C444.68 177.051 446.26 177.251 447.57 177.731C448.22 177.961 448.82 178.251 449.3 178.611C449.79 178.971 450.19 179.401 450.6 179.761C451.4 180.521 452.36 180.831 452.98 180.721C453.62 180.631 453.84 180.291 453.82 180.291C453.79 180.251 453.54 180.511 452.96 180.531C452.38 180.561 451.56 180.261 450.83 179.501C450.45 179.141 450.06 178.691 449.54 178.281C449.02 177.871 448.39 177.551 447.71 177.301C446.36 176.781 444.78 176.551 443.38 175.821C443.03 175.641 442.71 175.411 442.43 175.181C442.16 174.941 442.04 174.641 442.19 174.531C442.34 174.381 442.74 174.411 443.11 174.441C443.48 174.461 443.84 174.491 444.2 174.511C445.58 174.591 446.85 174.661 447.96 174.721C449.03 174.771 449.9 174.811 450.5 174.821C451.1 174.831 451.43 174.821 451.44 174.791V174.811Z" fill="#FF9A6C"/>
<path d="M499.35 166.541L502.87 168.761L523.16 160.041L524.09 164.531L505.73 202.601L503.93 267.021L483.77 267.421L497.04 175.521L499.35 166.541Z" fill="#455A64"/>
<path d="M518.34 168.471C518.34 168.471 518.1 168.641 517.63 168.911C517.11 169.201 516.44 169.571 515.65 170.011C513.98 170.941 511.67 172.241 509.15 173.701C508.03 174.351 506.95 174.981 505.96 175.561L505.82 175.641L505.75 175.511C504.76 173.731 504.18 172.101 503.67 170.991C503.42 170.431 503.22 170.001 503.08 169.701C502.94 169.401 502.86 169.241 502.88 169.231C502.89 169.231 503 169.371 503.17 169.651C503.34 169.931 503.57 170.361 503.84 170.911C504.4 172.001 505.02 173.621 506.01 175.351L505.8 175.301C506.78 174.711 507.85 174.081 508.98 173.431C511.51 171.971 513.84 170.701 515.54 169.821C516.39 169.381 517.09 169.041 517.57 168.811C518.06 168.581 518.33 168.471 518.34 168.491V168.471Z" fill="#263238"/>
<path d="M498.52 172.411C498.58 172.381 499.02 173.271 499.63 174.581H499.37C499.64 174.041 499.99 173.461 500.38 172.861C501.04 171.841 501.67 170.931 502.11 170.271C502.56 169.611 502.82 169.201 502.86 169.221C502.9 169.241 502.7 169.701 502.3 170.391C501.9 171.091 501.3 172.011 500.64 173.031C500.25 173.631 499.9 174.201 499.61 174.701L499.46 174.961L499.35 174.691C498.79 173.351 498.45 172.431 498.51 172.401L498.52 172.411Z" fill="#263238"/>
<path d="M493.04 274.261C493.04 274.261 493.04 274.171 493.04 273.991C493.05 273.801 493.07 273.531 493.1 273.191C493.16 272.481 493.25 271.451 493.36 270.141C493.6 267.471 493.94 263.641 494.36 258.911C495.24 249.421 496.45 236.341 497.79 221.881C499.17 207.431 500.41 194.341 501.31 184.861C501.78 180.141 502.15 176.311 502.41 173.641C502.55 172.331 502.65 171.311 502.73 170.591C502.77 170.251 502.8 169.991 502.82 169.801C502.84 169.621 502.86 169.531 502.86 169.531C502.86 169.531 502.86 169.621 502.86 169.801C502.85 169.991 502.83 170.261 502.8 170.591C502.74 171.301 502.65 172.331 502.54 173.641C502.3 176.311 501.96 180.141 501.54 184.871C500.66 194.361 499.45 207.451 498.11 221.901C496.74 236.351 495.49 249.431 494.59 258.921C494.12 263.641 493.75 267.471 493.49 270.141C493.35 271.451 493.25 272.471 493.17 273.191C493.13 273.531 493.1 273.791 493.08 273.981C493.06 274.161 493.04 274.251 493.04 274.251V274.261Z" fill="#263238"/>
<path opacity="0.3" d="M503.4 170.211L504.59 178.691L516.12 169.741L505.88 175.421L503.4 170.211Z" fill="black"/>
<path d="M495.2 172.031C491.85 173.311 487.29 175.061 484.84 176.001C483.52 176.511 482.35 177.331 481.42 178.391C479.16 180.991 475.15 186.601 472.75 195.801L468.37 199.631L457.13 185.351L444.89 194.351C444.89 194.351 465.93 238.401 474.53 238.291L464.86 333.801L476.68 333.531L498.61 171.821L499.36 166.531C499.07 166.641 495.98 170.951 495.21 172.011L495.2 172.031Z" fill="#E0E0E0"/>
<path d="M479.86 187.461C479.86 187.461 479.86 187.521 479.86 187.631C479.85 187.761 479.83 187.921 479.81 188.131C479.76 188.591 479.69 189.221 479.6 190.031C479.41 191.701 479.14 194.081 478.8 197.011C478.13 202.911 477.27 211.061 476.42 220.081C475.57 229.101 474.87 237.271 474.36 243.181C474.1 246.121 473.89 248.501 473.75 250.181C473.67 250.991 473.61 251.621 473.57 252.081C473.55 252.281 473.53 252.441 473.51 252.571C473.5 252.681 473.49 252.741 473.48 252.741C473.48 252.741 473.48 252.681 473.48 252.571C473.48 252.441 473.49 252.281 473.5 252.071C473.53 251.611 473.57 250.971 473.62 250.161C473.74 248.481 473.92 246.091 474.13 243.151C474.58 237.231 475.25 229.061 476.1 220.041C476.95 211.021 477.85 202.871 478.57 196.981C478.93 194.031 479.24 191.651 479.47 190.011C479.58 189.211 479.68 188.571 479.74 188.121C479.77 187.921 479.8 187.761 479.82 187.631C479.84 187.521 479.85 187.461 479.86 187.461Z" fill="#263238"/>
<path d="M494.23 204.421C494.23 204.421 494.19 204.301 494.14 204.071C494.09 203.811 494.02 203.481 493.93 203.061C493.76 202.151 493.51 200.891 493.22 199.351C492.64 196.191 491.86 191.871 490.99 187.111C490.9 186.621 490.82 186.131 490.73 185.641V185.591L490.75 185.551C491.5 184.411 492.22 183.321 492.91 182.271L493 182.461C492.26 182.261 491.54 182.061 490.85 181.871L490.7 181.831L490.75 181.711C492.04 178.871 493.13 176.451 493.92 174.711C494.31 173.881 494.62 173.211 494.85 172.721C494.95 172.511 495.04 172.341 495.11 172.201C495.17 172.081 495.21 172.021 495.21 172.021C495.21 172.021 495.2 172.091 495.15 172.211C495.09 172.351 495.02 172.531 494.94 172.751C494.73 173.251 494.45 173.921 494.09 174.761C493.33 176.511 492.28 178.941 491.03 181.801L490.94 181.641C491.64 181.831 492.36 182.021 493.1 182.221L493.28 182.271L493.19 182.411C492.5 183.461 491.78 184.561 491.04 185.701L491.06 185.611C491.15 186.091 491.23 186.581 491.32 187.081C492.15 191.851 492.9 196.171 493.45 199.331C493.7 200.881 493.91 202.141 494.06 203.051C494.12 203.471 494.17 203.801 494.21 204.061C494.24 204.291 494.25 204.411 494.24 204.421H494.23Z" fill="#263238"/>
<path d="M546.83 176.531L530.47 169.221L524.86 165.001L523.61 160.821C523.61 160.821 519.95 164.681 516.74 171.651C512.13 181.671 506.81 196.291 505.73 202.601L501.69 333.801H546.82L540.88 257.281L535.84 229.181L546.82 176.531H546.83Z" fill="#E0E0E0"/>
<path d="M505.43 208.491C505.43 208.491 505.5 208.331 505.65 208.041C505.82 207.731 506.05 207.311 506.33 206.781C506.95 205.661 507.82 204.101 508.88 202.171C511.08 198.271 514.08 192.931 517.41 187.031L517.86 186.231V186.361C517.49 185.151 517.14 183.961 516.8 182.811L516.77 182.701L516.86 182.631C517.74 182.011 518.59 181.411 519.41 180.831L519.35 180.911C520.92 176.291 522.28 172.321 523.25 169.461C523.73 168.081 524.12 166.961 524.4 166.171C524.53 165.811 524.64 165.521 524.72 165.301C524.8 165.101 524.84 165.001 524.85 165.001C524.85 165.001 524.83 165.111 524.77 165.311C524.7 165.541 524.61 165.831 524.5 166.201C524.24 167.001 523.88 168.131 523.43 169.521C522.48 172.381 521.17 176.371 519.64 181.001L519.62 181.051L519.58 181.081C518.76 181.661 517.91 182.271 517.04 182.891L517.1 182.721C517.44 183.871 517.79 185.061 518.15 186.271L518.17 186.341L518.14 186.401C517.99 186.661 517.84 186.931 517.69 187.201C514.34 193.081 511.3 198.401 509.08 202.291C507.98 204.191 507.08 205.741 506.44 206.851C506.13 207.361 505.89 207.771 505.71 208.081C505.54 208.361 505.45 208.501 505.44 208.501L505.43 208.491Z" fill="#263238"/>
<path opacity="0.3" d="M524.41 166.351L519.89 182.631L518 183.351L519.3 187.431L506.35 206.881L518 186.321L516.95 182.771L519.5 180.971L524.41 166.351Z" fill="black"/>
<path d="M523.48 208.521H507.4V212.511H523.48V208.521Z" fill="#E0E0E0"/>
<path d="M523.49 212.511C523.49 212.511 523.48 212.411 523.47 212.231C523.47 212.021 523.46 211.761 523.45 211.441C523.44 210.731 523.42 209.751 523.4 208.521L523.49 208.611C519.88 208.651 514.02 208.671 507.41 208.671C507.48 208.601 507.26 208.821 507.56 208.521V210.541C507.56 211.211 507.56 211.861 507.56 212.511L507.42 212.371C511.97 212.401 515.96 212.421 518.85 212.441C520.27 212.461 521.42 212.471 522.24 212.481C522.62 212.481 522.93 212.491 523.16 212.501C523.37 212.501 523.49 212.511 523.49 212.521C523.49 212.521 523.39 212.531 523.19 212.541C522.96 212.541 522.66 212.551 522.3 212.561C521.48 212.571 520.34 212.581 518.94 212.601C516.02 212.621 512 212.641 507.41 212.671H507.27V212.531C507.27 211.891 507.27 211.231 507.27 210.561V208.551V208.531C507.56 208.241 507.35 208.451 507.42 208.381C514.03 208.381 519.89 208.401 523.5 208.441H523.59V208.531C523.57 209.781 523.55 210.781 523.54 211.501C523.54 211.821 523.52 212.071 523.52 212.271C523.52 212.441 523.51 212.531 523.5 212.521L523.49 212.511Z" fill="#263238"/>
<path d="M458.68 190.561L467.04 222.151C467.5 223.901 469.1 225.111 470.92 225.071L514.22 224.221C516.68 224.171 518.5 221.891 517.99 219.481L511.61 189.221C511.23 187.401 509.62 186.101 507.77 186.101H462.11C459.79 186.101 458.09 188.301 458.69 190.551L458.68 190.561Z" fill="#263238"/>
<path d="M526.63 211.061L522.92 207.941C522.92 207.941 521.76 204.081 521.03 203.351C520.3 202.621 518.34 202.081 518.34 202.081L513.94 198.041L514.74 201.641L508.36 201.591C507.61 201.591 506.89 202.001 506.62 202.701C506.57 202.831 506.55 202.951 506.57 203.051C506.75 204.241 507.85 204.721 507.85 204.721L508.77 205.151C508.77 205.151 507.43 205.541 507.27 206.711C507.04 208.341 508.6 208.861 508.6 208.861C508.6 208.861 507.03 209.561 507.93 211.441C507.93 211.441 506.47 213.171 507.31 214.341C508.15 215.511 512.99 217.471 512.99 217.471L515.67 218.691C516.32 218.881 517.01 218.921 517.68 218.801L519.69 220.081C519.69 220.081 524.08 218.061 526.63 211.031V211.061Z" fill="#FFBF9D"/>
<path d="M517.8 206.811C517.8 206.861 517.24 206.881 516.35 206.821C515.46 206.761 514.23 206.621 512.89 206.351C511.55 206.081 510.36 205.741 509.52 205.441C508.68 205.151 508.17 204.911 508.19 204.871C508.23 204.761 510.32 205.451 512.97 205.981C515.62 206.521 517.81 206.701 517.8 206.811Z" fill="#FF9A6C"/>
<path d="M519.55 211.841C519.52 211.941 517.05 211.361 514.02 210.551C510.99 209.731 508.56 208.991 508.59 208.891C508.62 208.791 511.09 209.371 514.12 210.181C517.14 211.001 519.57 211.741 519.55 211.841Z" fill="#FF9A6C"/>
<path d="M519.04 215.601C519.04 215.601 518.35 215.591 517.27 215.371C516.19 215.161 514.71 214.771 513.14 214.191C511.56 213.601 510.19 212.931 509.23 212.391C508.27 211.851 507.72 211.451 507.74 211.411C507.77 211.361 508.37 211.671 509.35 212.151C510.33 212.631 511.71 213.251 513.27 213.831C514.83 214.411 516.28 214.831 517.33 215.111C518.39 215.391 519.05 215.551 519.04 215.601Z" fill="#FF9A6C"/>
<path d="M520.23 210.741C520.12 210.701 520.33 209.991 520.18 209.131C520.04 208.261 519.62 207.661 519.71 207.591C519.77 207.511 520.4 208.081 520.56 209.071C520.73 210.051 520.32 210.801 520.24 210.741H520.23Z" fill="#FF9A6C"/>
<path d="M520.3 206.111C520.23 206.031 520.56 205.641 520.61 205.041C520.68 204.451 520.44 204.001 520.52 203.931C520.56 203.901 520.69 203.981 520.81 204.181C520.93 204.381 521.02 204.711 520.99 205.071C520.95 205.431 520.79 205.741 520.63 205.911C520.47 206.081 520.33 206.141 520.3 206.101V206.111Z" fill="#FF9A6C"/>
<path d="M519.87 215.371C519.79 215.301 520.04 214.901 520.19 214.371C520.35 213.841 520.35 213.371 520.46 213.351C520.56 213.321 520.74 213.851 520.56 214.471C520.38 215.101 519.94 215.441 519.87 215.361V215.371Z" fill="#FF9A6C"/>
<path d="M510.01 201.641C510.01 201.781 511.69 201.801 513.74 201.951C515.79 202.091 517.45 202.311 517.48 202.171C517.51 202.041 515.86 201.601 513.78 201.461C511.7 201.311 510.01 201.511 510.02 201.641H510.01Z" fill="#FF9A6C"/>
<path d="M559.35 222.551C558.67 218.231 553.83 192.321 552.37 184.491C551.91 182.041 550.84 179.711 549.09 177.921C547.09 175.871 544.36 174.461 540.68 173.881C535.27 180.591 533.17 189.381 534.95 197.811L535.74 201.551L537.95 215.651L527.88 209.771L519.03 220.911C519.03 220.911 523.57 227.411 528.3 231.531C533.9 236.421 541.38 245.171 550.6 244.181C559.12 243.271 560.78 231.681 559.35 222.531V222.551Z" fill="#E0E0E0"/>
<path d="M538.68 240.491C538.68 240.491 538.51 240.411 538.21 240.221C537.87 240.001 537.44 239.721 536.91 239.371C535.81 238.571 534.22 237.391 532.38 235.731C528.67 232.441 523.82 227.401 518.84 221.071L518.72 220.921L518.84 220.761C520.75 218.351 522.81 215.761 524.93 213.081C525.86 211.911 526.78 210.751 527.69 209.611L527.83 209.431L528.02 209.541C531.6 211.641 534.99 213.621 538.08 215.441L537.73 215.681C536.83 209.401 536.08 204.081 535.53 200.271C535.28 198.431 535.09 196.961 534.95 195.891C534.89 195.421 534.85 195.031 534.81 194.731C534.78 194.471 534.78 194.331 534.79 194.331C534.8 194.331 534.84 194.461 534.89 194.721C534.94 195.021 535.01 195.401 535.1 195.871C535.27 196.931 535.52 198.401 535.82 200.231C536.41 204.031 537.23 209.341 538.21 215.611L538.29 216.101L537.86 215.851C534.76 214.051 531.36 212.081 527.78 210.001L528.12 209.941C527.22 211.081 526.3 212.231 525.37 213.411C523.25 216.081 521.19 218.661 519.27 221.081V220.771C524.2 227.091 528.99 232.161 532.63 235.491C534.44 237.181 535.99 238.391 537.05 239.231C537.57 239.611 537.98 239.911 538.3 240.151C538.58 240.361 538.73 240.481 538.72 240.491H538.68Z" fill="#263238"/>
</svg>
